<?xml version="1.0" encoding="utf-8"?>
<!-- Generator: Adobe Illustrator 16.0.4, SVG Export Plug-In . SVG Version: 6.00 Build 0)  -->
<!DOCTYPE svg PUBLIC "-//W3C//DTD SVG 1.1//EN" "http://www.w3.org/Graphics/SVG/1.1/DTD/svg11.dtd">
<svg version="1.1" id="Layer_1" xmlns="http://www.w3.org/2000/svg" xmlns:xlink="http://www.w3.org/1999/xlink" x="0px" y="0px"
	 width="480px" height="339px" viewBox="0 0 480 339" enable-background="new 0 0 480 339" xml:space="preserve">
<path fill-rule="evenodd" clip-rule="evenodd" fill="#EB573B" d="M195.115,273.079c-25.445,0-48.482-11.753-65.157-30.753
	c-16.675-19.002-26.99-45.252-26.99-74.245c0-3.947,0.208-7.942,0.608-11.964c0.401-4.01,1-7.952,1.786-11.813l17.383,4.535
	c-0.631,3.105-1.114,6.278-1.437,9.506c-0.309,3.099-0.468,6.346-0.468,9.737c0,23.371,8.313,44.53,21.753,59.845
	c13.439,15.315,32.009,24.788,52.521,24.788V273.079"/>
<path fill-rule="evenodd" clip-rule="evenodd" fill="#EB573B" d="M195.115,252.715h49.41v86.458c0,4.929-3.536,8.96-7.861,8.96
	h-33.687c-4.325,0-7.862-4.031-7.862-8.96V252.715"/>
<path fill-rule="evenodd" clip-rule="evenodd" fill="#F8B232" d="M212.229,160.729h15.182c10.767,0,19.574,10.038,19.574,22.304
	v37.664c0,12.267-8.807,22.305-19.574,22.305h-15.182c-10.766,0-19.573-10.038-19.573-22.305v-37.664
	C192.656,170.767,201.463,160.729,212.229,160.729"/>
<path fill-rule="evenodd" clip-rule="evenodd" fill="#CE6F28" d="M216.47,213.423l3.351-17.106v-35.587h-7.59
	c-10.768,0-19.575,10.038-19.575,22.305v37.663c0,12.267,8.807,22.305,19.575,22.305h7.59v-29.578H216.47"/>
<path fill-rule="evenodd" clip-rule="evenodd" fill="#191919" d="M208.843,192.938c0.304-1.068,1.311-1.651,2.248-1.305
	s1.449,1.494,1.145,2.561c-0.574,2.002-1.694,3.722-3.154,4.928c-1.429,1.181-3.184,1.877-5.078,1.877
	c-1.893,0-3.647-0.696-5.076-1.877c-1.462-1.206-2.58-2.926-3.156-4.928c-0.304-1.067,0.209-2.214,1.146-2.561
	c0.936-0.347,1.943,0.237,2.247,1.305c0.336,1.171,0.994,2.18,1.857,2.892c0.835,0.689,1.866,1.098,2.982,1.098
	c1.118,0,2.148-0.409,2.983-1.098C207.848,195.118,208.507,194.109,208.843,192.938"/>
<path fill-rule="evenodd" clip-rule="evenodd" fill="#191919" d="M199.046,213.606c-0.304-1.067,0.208-2.214,1.145-2.561
	c0.938-0.347,1.943,0.238,2.248,1.305c1.21,4.217,3.574,7.844,6.666,10.397c3.008,2.484,6.71,3.949,10.717,3.949v4.072
	c-4.782,0-9.208-1.753-12.81-4.728C203.318,222.992,200.495,218.654,199.046,213.606"/>
<path fill-rule="evenodd" clip-rule="evenodd" fill="#191919" d="M230.797,192.938c-0.304-1.068-1.31-1.651-2.248-1.305
	c-0.937,0.347-1.449,1.494-1.145,2.561c0.575,2.002,1.692,3.722,3.156,4.928c1.428,1.181,3.184,1.877,5.077,1.877
	s3.646-0.696,5.076-1.877c1.462-1.206,2.581-2.926,3.154-4.928c0.306-1.067-0.207-2.214-1.144-2.561
	c-0.938-0.347-1.943,0.237-2.249,1.305c-0.335,1.171-0.994,2.18-1.855,2.892c-0.836,0.689-1.866,1.098-2.982,1.098
	c-1.118,0-2.147-0.409-2.983-1.098C231.792,195.118,231.134,194.109,230.797,192.938"/>
<path fill-rule="evenodd" clip-rule="evenodd" fill="#162B17" d="M240.594,213.606c0.305-1.067-0.207-2.214-1.145-2.561
	s-1.943,0.238-2.248,1.305c-1.21,4.217-3.574,7.844-6.666,10.397c-3.008,2.484-6.71,3.949-10.716,3.949v4.072
	c4.782,0,9.207-1.753,12.809-4.728C236.321,222.992,239.145,218.654,240.594,213.606"/>
<path fill-rule="evenodd" clip-rule="evenodd" fill="#F8B232" d="M192.656,218.562c-5.6,0-10.14-5.172-10.14-11.555
	c0-6.379,4.54-11.552,10.14-11.552V218.562"/>
<path fill-rule="evenodd" clip-rule="evenodd" fill="#E84F25" d="M246.984,218.562c5.6,0,10.14-5.172,10.14-11.555
	c0-6.379-4.54-11.552-10.14-11.552V218.562"/>
<path fill-rule="evenodd" clip-rule="evenodd" fill="#191919" d="M246.731,179.453l-8.906-8.999c0,0-2.144,6.72-7.148,9.775
	c-5.004,3.054-15.369,3.666-15.369,3.666s6.076-4.073,8.22-6.517c2.145-2.444,3.932-7.738,3.932-7.738s-10.365,15.681-25.913,15.477
	c-15.55-0.203-24.485-9.164-23.056-18.125c1.43-8.959,6.434-12.625,6.434-12.625s-4.646,14.459,2.859,12.422
	c7.507-2.036,2.057-28.712,32.036-28.102c29.979,0.61,25.868,19.753,25.868,19.753S256.59,164.345,246.731,179.453"/>
<polyline fill-rule="evenodd" clip-rule="evenodd" fill="#CE6F28" points="219.82,243.001 214.86,243.001 214.86,252.42 
	219.82,255.883 219.82,243.001 "/>
<polyline fill-rule="evenodd" clip-rule="evenodd" fill="#F8B232" points="224.779,243.001 219.82,243.001 219.82,255.883 
	224.779,252.42 224.779,243.001 "/>
<polyline fill-rule="evenodd" clip-rule="evenodd" fill="#191919" points="215.086,255.629 224.555,255.629 223.147,262.757 
	216.493,262.757 215.086,255.629 "/>
<polyline fill-rule="evenodd" clip-rule="evenodd" fill="#FFFFFF" points="214.86,252.42 211.285,260.771 219.82,255.883 
	214.86,252.42 "/>
<polyline fill-rule="evenodd" clip-rule="evenodd" fill="#FFFFFF" points="224.779,252.42 228.354,260.771 219.82,255.883 
	224.779,252.42 "/>
<polyline fill-rule="evenodd" clip-rule="evenodd" fill="#191919" points="216.493,262.757 210.39,327.212 219.82,336.376 
	219.82,262.757 216.493,262.757 "/>
<polyline fill-rule="evenodd" clip-rule="evenodd" fill="#191919" points="223.147,262.757 229.25,327.212 219.82,336.376 
	219.82,262.757 223.147,262.757 "/>
<rect x="202.977" y="348.133" fill="#CE6F28" width="34.62" height="4.894"/>
<rect x="218.436" y="348.133" fill="#191919" width="3.702" height="4.894"/>
<rect x="205.185" y="348.133" fill="#191919" width="1.851" height="4.894"/>
<rect x="210.311" y="348.133" fill="#191919" width="1.85" height="4.894"/>
<rect x="228.553" y="348.133" fill="#191919" width="1.85" height="4.894"/>
<rect x="233.678" y="348.133" fill="#191919" width="1.852" height="4.894"/>
<path fill-rule="evenodd" clip-rule="evenodd" fill="#191919" d="M118.38,141.452l-15.425-0.434c-4.984-0.14-9.19,4.39-9.351,10.067
	l-0.691,24.595c-0.158,5.676,3.788,10.436,8.771,10.576l15.426,0.435c4.983,0.139,9.191-4.39,9.349-10.068l0.691-24.594
	C127.311,146.352,123.364,141.592,118.38,141.452"/>
<path fill-rule="evenodd" clip-rule="evenodd" fill="#EB573B" d="M244.524,273.079c25.446,0,48.482-11.753,65.157-30.753
	c16.676-19.002,26.99-45.252,26.99-74.245c0-3.947-0.207-7.942-0.608-11.964c-0.401-4.01-1-7.952-1.786-11.813l-17.384,4.535
	c0.632,3.105,1.115,6.278,1.438,9.506c0.31,3.099,0.469,6.346,0.469,9.737c0,23.371-8.312,44.53-21.754,59.845
	c-13.439,15.315-32.009,24.788-52.521,24.788V273.079"/>
<path fill-rule="evenodd" clip-rule="evenodd" fill="#191919" d="M321.26,141.452l15.425-0.434c4.983-0.14,9.19,4.39,9.351,10.067
	l0.691,24.595c0.158,5.676-3.788,10.436-8.771,10.576l-15.426,0.435c-4.983,0.139-9.19-4.39-9.351-10.068l-0.689-24.594
	C312.33,146.352,316.276,141.592,321.26,141.452"/>
<path fill-rule="evenodd" clip-rule="evenodd" fill="#191919" d="M104.531,198.985c1.555,1.772,4.855,1.772,6.41,0
	c1.004-1.143,1.325-2.965,1.586-4.15c0.171-0.771,0.321-1.318,0.391-2.159c0.064-0.785,0.153-1.386,0.25-2.157l-0.311-40.672
	c-0.106-0.939-0.102-1.246-0.095-2.158l-1.024-25.731c0.002-0.794,0.051-1.386-0.025-2.157c-0.417-4.188,1.005-5.076,3.712-8.635
	c0.525-0.689,0.493-0.771,1.339-1.816c2.846-3.52,5.096-8.486,5.475-12.957c0.28-3.32,0.029-7.333-0.716-10.625
	c-0.625-2.77-0.599-3.368-1.778-6.473c-2.118-5.577-6.125-13.262-12.01-13.253c-1.276,0.001-2.294,0.221-3.496,0.913
	c-5.92,3.415-9.443,13.546-10.581,20.308c-0.993,5.902-0.833,11.788,1.965,17.099c1.661,3.153,3.634,5.535,5.972,8.632
	c3.052,4.042,2.119,4.702,2.134,8.632c0.016,4.147-0.442,8.882-0.432,12.782c0.007,3.05-0.582,9.838-0.594,12.949
	c-0.011,2.95-0.299,5.679-0.284,8.633l-0.443,30.046C102.089,189.355,102.775,196.985,104.531,198.985"/>
<path fill-rule="evenodd" clip-rule="evenodd" fill="#191919" d="M329.107,198.985c1.555,1.772,4.856,1.772,6.41,0
	c1.004-1.143,1.324-2.965,1.588-4.15c0.169-0.771,0.319-1.318,0.39-2.159c0.063-0.785,0.152-1.386,0.252-2.157l-0.312-40.672
	c-0.106-0.939-0.102-1.246-0.096-2.158l-1.023-25.731c0.002-0.794,0.051-1.386-0.026-2.157c-0.091-0.915-0.094-1.671-0.015-2.333
	c1.382-2.249,4.504-2.827,6.88-6.94c2.548-4.41,1.599-11.187,1.611-16.699l-0.381-12.343c-0.012-0.666-0.097-0.826-0.132-1.451
	c-0.358-6.441,0.894-5.57-2.741-6.103c-0.358-0.051-2.146-0.19-2.421-0.143c-0.445,0.877-0.191,10.838-0.191,12.053v9.147
	c0,1.562,0.306,2.194-0.7,3.34c-0.919,1.044-2.584,0.833-3.568-0.291c-0.722-0.822-0.446-4.395-0.446-6.098
	c0-2.431,0.122-17.221-0.063-18.296c-1.076-0.243-1.456-0.213-2.548-0.219c-0.803-0.003-1.805,0.05-2.55,0.219
	c0.216,1.238,0.064,4.457,0.064,5.954V94.7c0,1.071,0.463,3.984-2.23,4.127c-0.526,0.029-1.554-0.378-2.039-0.933
	c-0.677-0.77-0.446-2.025-0.446-2.904c0.001-2.949,0.125-20.111-0.064-21.201c-0.73,0.257-1.384,0.279-2.165,0.37
	c-0.828,0.096-1.536,0.092-2.295,0.357c-0.134,0.775-0.066,1.498-0.061,2.323c0.005,0.933-0.131,1.433-0.135,2.323l-0.135,8.131
	c-0.042,0.538-0.1,0.593-0.118,1.163c-0.054,1.584,0.034,3.044,0.008,4.646c-0.014,0.884-0.139,1.378-0.134,2.323
	c0.005,0.846,0.001,1.479,0.001,2.323c0,1.62,0,3.026,0,4.646c0,3.275,0.329,6.691,2.613,9.293c2.966,3.38,3.522,2.853,6.243,5.954
	c0.121,0.136,0.219,0.298,0.297,0.48c0.012,0.933-0.127,1.968-0.121,3.502c0.015,4.147-0.443,8.882-0.433,12.782
	c0.007,3.05-0.582,9.838-0.594,12.949c-0.012,2.95-0.299,5.679-0.284,8.633l-0.44,30.046
	C326.666,189.355,327.352,196.985,329.107,198.985"/>
<path fill-rule="evenodd" clip-rule="evenodd" fill="#F8B232" d="M118.479,136.089L118.479,136.089
	c3.308,0.106,5.938,3.275,5.845,7.044l-0.647,26.251c-0.093,3.769-2.875,6.766-6.183,6.659c-3.308-0.106-5.938-3.275-5.846-7.044
	l0.648-26.251C112.389,138.979,115.171,135.983,118.479,136.089"/>
<path fill-rule="evenodd" clip-rule="evenodd" fill="#CE6F28" d="M112.296,146.659L112.296,146.659
	c-0.106,3.178-2.476,5.723-5.266,5.656l-13.654-0.321c-2.79-0.066-4.984-2.719-4.878-5.896c0.106-3.178,2.476-5.723,5.267-5.656
	l13.653,0.322C110.207,140.829,112.402,143.482,112.296,146.659"/>
<path fill-rule="evenodd" clip-rule="evenodd" fill="#F8B232" d="M111.909,158.212L111.909,158.212
	c-0.106,3.177-2.476,5.722-5.266,5.655l-13.654-0.322c-2.79-0.065-4.985-2.718-4.879-5.895c0.107-3.177,2.476-5.722,5.266-5.657
	l13.654,0.322C109.82,152.382,112.015,155.034,111.909,158.212"/>
<path fill-rule="evenodd" clip-rule="evenodd" fill="#CE6F28" d="M111.522,169.764L111.522,169.764
	c-0.106,3.178-2.476,5.723-5.266,5.656l-13.654-0.323c-2.79-0.065-4.985-2.718-4.878-5.896c0.106-3.177,2.476-5.722,5.265-5.657
	l13.654,0.322C109.434,163.933,111.628,166.586,111.522,169.764"/>
<path fill-rule="evenodd" clip-rule="evenodd" fill="#F8B232" d="M111.136,181.315v0.001c-0.106,3.176-2.476,5.722-5.266,5.655
	l-13.654-0.322c-2.79-0.065-4.985-2.718-4.879-5.895s2.476-5.723,5.266-5.657l13.654,0.323
	C109.046,175.485,111.242,178.139,111.136,181.315"/>
<path fill-rule="evenodd" clip-rule="evenodd" fill="#F8B232" d="M321.16,136.089L321.16,136.089
	c-3.307,0.106-5.937,3.275-5.844,7.044l0.647,26.251c0.093,3.769,2.874,6.766,6.183,6.659c3.309-0.106,5.938-3.275,5.846-7.044
	l-0.648-26.251C327.252,138.979,324.469,135.983,321.16,136.089"/>
<path fill-rule="evenodd" clip-rule="evenodd" fill="#CE6F28" d="M327.344,146.659L327.344,146.659
	c0.107,3.178,2.476,5.723,5.266,5.656l13.653-0.321c2.79-0.066,4.985-2.719,4.88-5.896c-0.107-3.178-2.477-5.723-5.268-5.656
	l-13.651,0.322C329.433,140.829,327.237,143.482,327.344,146.659"/>
<path fill-rule="evenodd" clip-rule="evenodd" fill="#F8B232" d="M327.73,158.212L327.73,158.212
	c0.106,3.177,2.477,5.722,5.266,5.655l13.653-0.322c2.791-0.065,4.986-2.718,4.88-5.895s-2.477-5.722-5.267-5.657l-13.653,0.322
	C329.819,152.382,327.625,155.034,327.73,158.212"/>
<path fill-rule="evenodd" clip-rule="evenodd" fill="#CE6F28" d="M328.117,169.764L328.117,169.764
	c0.106,3.178,2.477,5.723,5.267,5.656l13.652-0.323c2.79-0.065,4.986-2.718,4.879-5.896c-0.106-3.177-2.475-5.722-5.266-5.657
	l-13.653,0.322C330.207,163.933,328.012,166.586,328.117,169.764"/>
<path fill-rule="evenodd" clip-rule="evenodd" fill="#F8B232" d="M328.505,181.315v0.001c0.105,3.176,2.476,5.722,5.266,5.655
	l13.653-0.322c2.789-0.065,4.984-2.718,4.878-5.895c-0.105-3.177-2.476-5.723-5.266-5.657l-13.652,0.323
	C330.594,175.485,328.398,178.139,328.505,181.315"/>
<path fill-rule="evenodd" clip-rule="evenodd" fill="#E6E6E6" d="M155.911,274.172h20.781v63.65h-13.835
	c-3.821,0-6.946-3.56-6.946-7.914V274.172"/>
<path fill-rule="evenodd" clip-rule="evenodd" fill="#F8B232" d="M159.153,284.668h17.539v45.683h-11.676
	c-3.225,0-5.863-3.008-5.863-6.681V284.668"/>
<path fill-rule="evenodd" clip-rule="evenodd" fill="#B3B4B4" d="M176.692,330.351v3.694H162.69c-1.946,0-3.537-1.813-3.537-4.03
	v-6.346c0,3.674,2.638,6.682,5.863,6.682H176.692"/>
<path fill-rule="evenodd" clip-rule="evenodd" fill="#E6E6E6" d="M155.911,287.984h-10.022v21.498c0,1.565,0.564,2.994,1.474,4.028
	c0.909,1.038,2.162,1.682,3.537,1.682h5.012v6.718h-5.012c-3.002,0-5.729-1.397-7.706-3.649c-1.975-2.248-3.202-5.356-3.202-8.778
	v-22.126c0-1.679,0.601-3.202,1.567-4.304c0.967-1.103,2.304-1.785,3.776-1.785h10.576V287.984"/>
<path fill-rule="evenodd" clip-rule="evenodd" fill="#B3B4B4" d="M197.474,274.172h-20.782v63.65h13.836
	c3.821,0,6.946-3.56,6.946-7.914V274.172"/>
<path fill-rule="evenodd" clip-rule="evenodd" fill="#CE6F28" d="M194.231,284.668h-17.54v45.683h11.677
	c3.224,0,5.862-3.008,5.862-6.681V284.668"/>
<path fill-rule="evenodd" clip-rule="evenodd" fill="#808080" d="M176.692,330.351v3.694h14.002c1.946,0,3.537-1.813,3.537-4.03
	v-6.346c0,3.674-2.638,6.682-5.862,6.682H176.692"/>
<path fill-rule="evenodd" clip-rule="evenodd" fill="#CE6F28" d="M172.565,324.262c1.177,0,2.137-1.095,2.137-2.437
	s-0.959-2.435-2.137-2.435c-1.177,0-2.137,1.093-2.137,2.435S171.389,324.262,172.565,324.262"/>
<path fill-rule="evenodd" clip-rule="evenodd" fill="#CE6F28" d="M168.808,317.208c1.177,0,2.137-1.095,2.137-2.436
	c0-1.343-0.96-2.436-2.137-2.436c-1.178,0-2.138,1.093-2.138,2.436C166.669,316.113,167.629,317.208,168.808,317.208"/>
<path fill-rule="evenodd" clip-rule="evenodd" fill="#CE6F28" d="M165.639,305.536c2.07,0,3.758-1.925,3.758-4.284
	c0-2.358-1.688-4.282-3.758-4.282c-2.07,0-3.758,1.924-3.758,4.282C161.881,303.611,163.568,305.536,165.639,305.536"/>
<path fill-rule="evenodd" clip-rule="evenodd" fill="#F8B232" d="M182.772,318.718c0.832,0,1.511-0.772,1.511-1.722
	c0-0.948-0.679-1.72-1.511-1.72c-0.833,0-1.51,0.771-1.51,1.72C181.262,317.945,181.939,318.718,182.772,318.718"/>
<path fill-rule="evenodd" clip-rule="evenodd" fill="#F8B232" d="M185.389,296.508c1.644,0,2.984-1.527,2.984-3.4
	s-1.341-3.4-2.984-3.4c-1.644,0-2.986,1.527-2.986,3.4S183.745,296.508,185.389,296.508"/>
<path fill-rule="evenodd" clip-rule="evenodd" fill="#F8B232" d="M190.399,290.294c0.528,0,0.958-0.49,0.958-1.092
	s-0.429-1.092-0.958-1.092c-0.527,0-0.958,0.49-0.958,1.092S189.872,290.294,190.399,290.294"/>
<path fill-rule="evenodd" clip-rule="evenodd" fill="#F8B232" d="M184.891,292.604c0.498,0,0.903-0.462,0.903-1.029
	c0-0.565-0.405-1.029-0.903-1.029c-0.497,0-0.902,0.464-0.902,1.029C183.988,292.142,184.394,292.604,184.891,292.604"/>
<path fill-rule="evenodd" clip-rule="evenodd" fill="#FFD44C" d="M164.275,301.167c0.557,0,1.012-0.518,1.012-1.152
	c0-0.637-0.455-1.155-1.012-1.155c-0.559,0-1.014,0.519-1.014,1.155C163.262,300.649,163.716,301.167,164.275,301.167"/>
<rect x="152.189" y="315.192" fill="#B3B4B4" width="3.722" height="6.718"/>
<rect x="152.189" y="281.268" fill="#B3B4B4" width="3.722" height="6.717"/>
<path fill-rule="evenodd" clip-rule="evenodd" fill="#CE6F28" d="M167.85,292.604c1.177,0,2.137-1.094,2.137-2.436
	s-0.96-2.436-2.137-2.436c-1.178,0-2.138,1.094-2.138,2.436S166.672,292.604,167.85,292.604"/>
<path fill-rule="evenodd" clip-rule="evenodd" fill="#F8B232" d="M187.71,308.894c0.833,0,1.51-0.774,1.51-1.722
	c0-0.948-0.678-1.722-1.51-1.722c-0.833,0-1.511,0.773-1.511,1.722C186.199,308.119,186.877,308.894,187.71,308.894"/>
<path fill-rule="evenodd" clip-rule="evenodd" fill="#F8B232" d="M180.45,309.271c0.833,0,1.512-0.772,1.512-1.721
	c0-0.947-0.679-1.722-1.512-1.722c-0.832,0-1.511,0.774-1.511,1.722C178.939,308.498,179.618,309.271,180.45,309.271"/>
<path fill-rule="evenodd" clip-rule="evenodd" fill="#FDD34C" d="M230.096,268.654c13.841,0,25.317,11.521,27.45,26.606h-54.898
	C204.782,280.175,216.258,268.654,230.096,268.654"/>
<path fill-rule="evenodd" clip-rule="evenodd" fill="#FEE9A5" d="M230.096,271.426c12.494,0,22.879,10.287,24.987,23.835h-49.971
	C207.219,281.713,217.603,271.426,230.096,271.426"/>
<path fill-rule="evenodd" clip-rule="evenodd" fill="#FDD34C" d="M230.096,274.194c11.147,0,20.436,9.058,22.51,21.066h-45.02
	C209.663,283.252,218.951,274.194,230.096,274.194"/>
<path fill-rule="evenodd" clip-rule="evenodd" fill="#FEE9A5" d="M230.096,276.965c9.798,0,17.991,7.828,20.028,18.296h-40.053
	C212.107,284.793,220.298,276.965,230.096,276.965"/>
<path fill-rule="evenodd" clip-rule="evenodd" fill="#FDD34C" d="M230.096,279.736c8.448,0,15.543,6.601,17.528,15.524h-35.055
	C214.556,286.337,221.648,279.736,230.096,279.736"/>
<path fill-rule="evenodd" clip-rule="evenodd" fill="#FEE9A5" d="M230.096,282.506c7.096,0,13.085,5.38,15.006,12.755h-30.011
	C217.011,287.886,223.003,282.506,230.096,282.506"/>
<path fill-rule="evenodd" clip-rule="evenodd" fill="#FDD34C" d="M230.096,285.275c5.738,0,10.621,4.164,12.449,9.985h-24.896
	C219.479,289.439,224.361,285.275,230.096,285.275"/>
<path fill-rule="evenodd" clip-rule="evenodd" fill="#FEE9A5" d="M230.096,288.047c4.37,0,8.131,2.959,9.828,7.214h-19.653
	C221.966,291.006,225.729,288.047,230.096,288.047"/>
<path fill-rule="evenodd" clip-rule="evenodd" fill="#FDD34C" d="M230.096,290.816c2.978,0,5.59,1.774,7.069,4.444h-14.138
	C224.509,292.591,227.12,290.816,230.096,290.816"/>
<path fill-rule="evenodd" clip-rule="evenodd" fill="#FEE9A5" d="M230.096,293.587c1.496,0,2.862,0.631,3.905,1.674h-7.808
	C227.237,294.218,228.602,293.587,230.096,293.587"/>
<path fill-rule="evenodd" clip-rule="evenodd" fill="#FDD34C" d="M223.957,280.615c9.852,0,18.506,5.838,23.445,14.646h-46.892
	C205.449,286.453,214.104,280.615,223.957,280.615"/>
<path fill-rule="evenodd" clip-rule="evenodd" fill="#FEE9A5" d="M223.957,283.386c8.421,0,15.884,4.677,20.5,11.875h-41.002
	C208.07,288.062,215.533,283.386,223.957,283.386"/>
<path fill-rule="evenodd" clip-rule="evenodd" fill="#FDD34C" d="M223.957,286.154c6.958,0,13.192,3.531,17.401,9.106h-34.803
	C210.763,289.686,216.997,286.154,223.957,286.154"/>
<path fill-rule="evenodd" clip-rule="evenodd" fill="#FEE9A5" d="M223.957,288.926c5.431,0,10.368,2.406,14.039,6.335h-28.079
	C213.586,291.332,218.524,288.926,223.957,288.926"/>
<path fill-rule="evenodd" clip-rule="evenodd" fill="#FDD34C" d="M223.957,291.696c3.769,0,7.268,1.315,10.165,3.564H213.79
	C216.687,293.012,220.187,291.696,223.957,291.696"/>
<path fill-rule="evenodd" clip-rule="evenodd" fill="#FEE9A5" d="M223.957,294.466c1.611,0,3.164,0.279,4.628,0.795h-9.257
	C220.791,294.745,222.344,294.466,223.957,294.466"/>
<path fill-rule="evenodd" clip-rule="evenodd" fill="#FDD34C" d="M251.713,273.502c12.313,0,22.756,9.122,26.413,21.759h-52.827
	C228.955,282.624,239.398,273.502,251.713,273.502"/>
<path fill-rule="evenodd" clip-rule="evenodd" fill="#FEE9A5" d="M251.713,276.271c10.953,0,20.286,7.908,23.841,18.989h-47.682
	C231.427,284.18,240.76,276.271,251.713,276.271"/>
<path fill-rule="evenodd" clip-rule="evenodd" fill="#FDD34C" d="M251.713,279.042c9.588,0,17.8,6.702,21.23,16.219h-42.461
	C233.913,285.744,242.125,279.042,251.713,279.042"/>
<path fill-rule="evenodd" clip-rule="evenodd" fill="#FEE9A5" d="M251.713,281.812c8.214,0,15.298,5.501,18.573,13.448h-37.149
	C236.414,287.313,243.499,281.812,251.713,281.812"/>
<path fill-rule="evenodd" clip-rule="evenodd" fill="#FDD34C" d="M251.713,284.582c6.827,0,12.771,4.313,15.847,10.679h-31.695
	C238.942,288.896,244.885,284.582,251.713,284.582"/>
<path fill-rule="evenodd" clip-rule="evenodd" fill="#FEE9A5" d="M251.713,287.354c5.418,0,10.193,3.138,13.003,7.907h-26.007
	C241.52,290.491,246.294,287.354,251.713,287.354"/>
<path fill-rule="evenodd" clip-rule="evenodd" fill="#FDD34C" d="M251.713,290.124c3.963,0,7.519,1.987,9.941,5.137h-19.883
	C244.193,292.111,247.749,290.124,251.713,290.124"/>
<path fill-rule="evenodd" clip-rule="evenodd" fill="#FEE9A5" d="M251.713,292.894c2.379,0,4.579,0.878,6.362,2.367h-12.725
	C247.134,293.771,249.333,292.894,251.713,292.894"/>
<path fill-rule="evenodd" clip-rule="evenodd" fill="#E6E6E6" d="M239.348,332.234h-6.681c-17.805,0-32.531-15.775-33.953-35.664
	h40.634V332.234"/>
<path fill-rule="evenodd" clip-rule="evenodd" fill="#B3B4B4" d="M198.714,296.57h40.634v-1.921h-40.634
	c-0.295,0-0.535,0.274-0.535,0.611v0.7C198.179,296.295,198.419,296.57,198.714,296.57"/>
<path fill-rule="evenodd" clip-rule="evenodd" fill="#E6E6E6" d="M239.348,332.234v5.588h-12.97c-1.855,0-3.371-1.727-3.371-3.839
	v-3.349c3.064,1.039,6.308,1.6,9.66,1.6H239.348"/>
<path fill-rule="evenodd" clip-rule="evenodd" fill="#B3B4B4" d="M232.667,332.234c-3.352,0-6.596-0.56-9.66-1.6v2.606
	c3.064,1.04,6.308,1.599,9.66,1.599h6.681v-2.605H232.667"/>
<path fill-rule="evenodd" clip-rule="evenodd" fill="#B3B4B4" d="M239.348,332.234h6.682c17.805,0,32.531-15.775,33.953-35.664
	h-40.635V332.234"/>
<path fill-rule="evenodd" clip-rule="evenodd" fill="#808080" d="M279.982,296.57h-40.635v-1.921h40.635
	c0.295,0,0.534,0.274,0.534,0.611v0.7C280.517,296.295,280.277,296.57,279.982,296.57"/>
<path fill-rule="evenodd" clip-rule="evenodd" fill="#1C6E38" d="M239.348,330.555h16.562c0.665-0.23,1.322-0.482,1.968-0.757
	h-18.53V330.555"/>
<path fill-rule="evenodd" clip-rule="evenodd" fill="#EA3924" d="M252.18,302.334c0,0,0.176-1.847,1.825-2.309
	c1.649-0.461,4.256,0.132,5.239-0.957c0.984-1.088,2.723-1.188,2.664,0.033c-0.057,1.221-1.42,2.771-1.42,2.771l1.795-1.121
	c0,0-0.23,1.451-1.186,2.143c-0.955,0.693-3.126,0.958-3.126,0.958s1.042,0.196,2.72,2.571c1.68,2.377,1.912,3.993,3.272,3.729
	c1.361-0.264,3.155-1.353,3.155-1.353l-0.608,2.177l1.158-0.23l-1.216,1.846l2.142,0.035l-1.736,1.252l1.158,1.023l-1.361,0.592
	l0.667,1.091l-2.26,0.231l1.101,1.22c0,0-2.143,0.429-4.66-2.705c-2.52-3.135-2.779-4.289-2.779-4.289s0.348,2.177,2.402,4.552
	c2.056,2.376,4.719,3.036,4.719,3.036l-1.013,0.264l1.36,0.463c0,0-1.39,1.615-4.574,0.396c-3.185-1.221-6.804-5.973-7.122-7.225
	c-0.317-1.254-0.636-2.441-0.636-2.441s-0.58,2.441-1.507,3.232c-0.925,0.792-2.576,0.065-1.071-2.639
	c1.505-2.705,2.462-3.959,2.346-4.884c-0.115-0.923-0.362-1.104-0.362-1.104S251.818,303.34,252.18,302.334"/>
<path fill-rule="evenodd" clip-rule="evenodd" fill="#CCCCCC" d="M252.412,305.27c-0.584,0.046-1.309,0.136-1.71,0.19l2.847,1.029
	c0.077-0.256,0.104-0.482,0.079-0.692c-0.03-0.242-0.069-0.434-0.112-0.584C253.516,305.213,253.266,305.205,252.412,305.27"/>
<path fill-rule="evenodd" clip-rule="evenodd" fill="#FFFFFF" d="M250.702,305.46c0.401-0.055,1.126-0.145,1.71-0.19
	c0.854-0.064,1.104-0.057,1.104-0.057c-0.116-0.421-0.25-0.52-0.25-0.52s-0.49-0.457-0.828-1.037l-2.037,1.845
	C250.4,305.501,250.517,305.485,250.702,305.46"/>
<path fill-rule="evenodd" clip-rule="evenodd" fill="#FFFFFF" d="M255.104,302.104c0.464,0,0.841,0.428,0.841,0.956
	s-0.377,0.958-0.841,0.958c-0.463,0-0.839-0.43-0.839-0.958S254.641,302.104,255.104,302.104"/>
<path fill-rule="evenodd" clip-rule="evenodd" fill="#333333" d="M254.79,302.714c0.202,0,0.365,0.187,0.365,0.416
	s-0.163,0.417-0.365,0.417c-0.201,0-0.366-0.188-0.366-0.417S254.589,302.714,254.79,302.714"/>
<path fill-rule="evenodd" clip-rule="evenodd" fill="#191919" d="M261.618,319.753c-3.185-1.221-6.804-5.973-7.122-7.225
	c-0.317-1.254-0.636-2.441-0.636-2.441c-0.673,3.943-0.631,6.119,0.151,8.526c0.782,2.408,4.951,5.345,4.951,5.345l3.356,2.902
	l-2.807,2.146l-3.127,1.253l1.136-0.315c2.012-0.827,3.938-1.867,5.756-3.092l0.26-0.436c0,0-0.522-1.451-1.071-2.277
	c-0.551-0.824-2.605-2.473-2.605-2.473l2.228,1.715c0,0,1.072,1.254,2.52,2.375c0.033,0.025,0.064,0.052,0.098,0.079
	c0.582-0.438,1.149-0.895,1.705-1.37c0.059-1.244,0.137-2.47,0.137-2.47s1.013-0.1,2.75-0.759c0.262-0.1,0.572-0.289,0.909-0.543
	c0.807-0.929,1.572-1.903,2.295-2.921l-2.51,1.98l4.951-5.906l-5.096,4.851c0,0,1.042-1.419,1.216-2.046
	c0.174-0.626-0.983-3.101-0.983-3.101s1.302-0.033,1.649,0.626c0.348,0.66,0.203,1.518,0.203,1.518s0.435-0.296,0.579-2.045
	c0.145-1.748-1.1-2.902-1.1-2.902s1.215-0.529,1.794,0.329c0.58,0.858,0.406,1.979,0.406,1.979s1.216-1.781,1.216-2.805
	c0-1.022-1.478-1.715-1.478-1.715s1.275-0.561,1.883,0.165s0.348,1.583,0.348,1.583s0.694-1.385,0.52-2.572
	c-0.172-1.188-1.707-1.617-1.707-1.617s1.367-0.645,1.94-0.494c0.571,0.147,1.353,0.493,1.466,0.545
	c-0.581-1.021-0.976-2.235-2.133-2.359c0,0,0.48-0.903,0.869-0.956c0.388-0.055,0.873,0.225,0.93,0.227l-0.766-0.986
	c-0.935-1.204-1.757-0.297-3.957,0s-4.197,2.177-5.065,4.387c-0.87,2.211-1.297,2.754-1.297,2.754c0.443-0.23,0.739-0.41,0.739-0.41
	l-0.608,2.177l1.158-0.23l-1.216,1.846l2.142,0.035l-1.736,1.252l1.158,1.023l-1.361,0.592l0.667,1.091l-2.26,0.231l1.101,1.22
	c0,0-2.143,0.429-4.66-2.705c-2.52-3.135-2.779-4.289-2.779-4.289s0.348,2.177,2.402,4.552c2.056,2.376,4.719,3.036,4.719,3.036
	l-1.013,0.264l1.36,0.463C266.192,319.357,264.803,320.973,261.618,319.753"/>
<path fill-rule="evenodd" clip-rule="evenodd" fill="#B42024" d="M253.86,310.087c0,0,0.318,1.188,0.636,2.441
	c0.318,1.252,3.938,6.004,7.122,7.225c1.945,0.745,3.221,0.432,3.919,0.075c-3.943,0.014-7.459-3.19-8.631-4.58
	c-1.418-1.683-1.418-3.133-1.014-4.386c0.406-1.254,0.521-4.521,0.521-4.521s-0.434,1.22-0.694,2.507
	c-0.262,1.287-1.071,2.046-1.419,1.452s0.261-2.739,0.261-2.739s-2.345,4.62-3.011,4.916s-0.806-0.493-0.806-0.493
	c-0.38,1.618,0.855,1.979,1.608,1.335C253.28,312.528,253.86,310.087,253.86,310.087"/>
<path fill-rule="evenodd" clip-rule="evenodd" fill="#B42024" d="M266.927,313.831c-0.188,0.03-0.387,0.047-0.597,0.049
	c-3.445,0.033-5.977-0.329-7.606-2.837c0,0,0.26,1.154,2.779,4.289c2.518,3.134,4.66,2.705,4.66,2.705l-1.101-1.22l2.26-0.231
	l-0.667-1.091l1.361-0.592l-1.158-1.023L266.927,313.831"/>
<path fill-rule="evenodd" clip-rule="evenodd" fill="#4D4D4D" d="M266.453,312.593l2.142,0.035l-1.668,1.203
	c2.908-0.455,3.39-4.006,4.15-4.718c0.812-0.76,0.796-0.825,2.331-1.368c1.534-0.546,2.2,0.592,2.2,0.592s-0.289-1.252-0.999-1.73
	c-0.709-0.479-1.694,0.115-1.694,0.115s0.565-0.429,1.259-1.056c0.695-0.627,2.304-0.479,2.304-0.479s-0.464-0.265-1.447-0.693
	c-0.985-0.429-2.057,1.552-3.938,2.672c-1.882,1.122-2.838,0.859-2.838,0.859s0.898-0.496,2.259-1.387
	c1.359-0.892,3.097-3.332,4.806-3.894c0.361-0.118,0.843-0.153,1.38-0.137v-0.538c-0.935-1.204-1.757-0.297-3.957,0
	s-4.197,2.177-5.065,4.387c-0.87,2.211-1.297,2.754-1.297,2.754c0.443-0.23,0.739-0.41,0.739-0.41l-0.608,2.177l1.158-0.23
	L266.453,312.593"/>
<path fill-rule="evenodd" clip-rule="evenodd" fill="#2C9446" d="M239.543,324.907c0,0-0.069-0.059-0.196-0.156v5.047h2.172
	C241.52,329.798,240.274,327.635,239.543,324.907"/>
<path fill-rule="evenodd" clip-rule="evenodd" fill="#162E18" d="M239.348,324.751c0.127,0.098,0.196,0.156,0.196,0.156
	c-0.07-0.264-0.136-0.532-0.196-0.804V324.751"/>
<path fill-rule="evenodd" clip-rule="evenodd" fill="#1C5229" d="M239.348,318.724c0.055-0.246,0.115-0.49,0.18-0.734
	c-0.06-0.069-0.12-0.136-0.18-0.204V318.724"/>
<path fill-rule="evenodd" clip-rule="evenodd" fill="#1C6E38" d="M239.348,324.104c0.06,0.271,0.126,0.54,0.196,0.804
	c0.731,2.728,1.976,4.891,1.976,4.891h2.142c0,0-0.131-2.079-0.089-4.602c0.037-2.229,0.21-4.805,0.727-6.599
	c0.093-0.326,0.181-0.655,0.265-0.988c0.897-3.598,1.15-7.489-0.439-7.128c-1.443,0.329-3.608,3.804-4.597,7.508
	c-0.064,0.244-0.125,0.488-0.18,0.734V324.104"/>
<path fill-rule="evenodd" clip-rule="evenodd" fill="#162E18" d="M243.572,325.196c0,0,0.609-1.52,2.579-4.355
	c0.151-0.22,0.315-0.412,0.491-0.582c0.009-0.007,0.017-0.015,0.024-0.022c0.095-0.097,0.439-0.503,0.816-1.639
	c0.44-1.336,2.547-0.132,3.821-1.123c1.273-0.989-0.175-2.046-2.259-2.573c-2.085-0.527-4.482,2.708-4.482,2.708
	c-0.084,0.333-0.172,0.662-0.265,0.988C243.782,320.392,243.609,322.968,243.572,325.196"/>
<path fill-rule="evenodd" clip-rule="evenodd" fill="#2C9446" d="M246.151,320.841c-1.97,2.836-2.579,4.355-2.579,4.355
	c-0.042,2.522,0.089,4.602,0.089,4.602s1.101-0.578,2.665-2.625c1.562-2.046,3.066-4.222,4.399-3.957
	c1.332,0.263,6.136,1.649,3.879-1.056c-2.077-2.488-5.816-3.915-7.938-1.924c-0.015,0.016-0.024,0.022-0.024,0.022
	C246.467,320.429,246.303,320.621,246.151,320.841"/>
<path fill-rule="evenodd" clip-rule="evenodd" fill="#B42024" d="M239.348,307.51c0.646,0.725,1.26,1.974,1.824,2.08
	c0.867,0.166,0.984-2.275,0.521-3.398c-0.463-1.119-1.477-1.55-1.477-1.55l1.333,0.462c0,0,0.318-0.923,1.245-0.923
	c0.925,0,1.245,0.428,1.245,0.428s0.316-1.088-0.985-1.747c-1.302-0.66-3.04-0.1-3.04-0.1s-0.549-0.988-0.086-1.616
	c0.462-0.627,0.782-1.319,0.782-1.319s-0.757-0.061-1.361,0.35V307.51"/>
<path fill-rule="evenodd" clip-rule="evenodd" fill="#248641" d="M230.778,330.555h8.569v-0.757h-8.569
	c-0.183,0-0.333,0.17-0.333,0.379C230.445,330.385,230.595,330.555,230.778,330.555"/>
<path fill-rule="evenodd" clip-rule="evenodd" fill="#3DB44A" d="M239.348,324.751c-0.544-0.422-2.147-1.594-3.792-2.13
	c-2.027-0.659-3.01-1.78-4.459,0.527c-1.448,2.31-0.984,5.08,0.812,4.42c1.795-0.658-0.291-3.561,2.662-1.715
	c2.954,1.848,4.633,3.944,4.633,3.944h0.145V324.751"/>
<path fill-rule="evenodd" clip-rule="evenodd" fill="#2C9446" d="M235.556,322.621c1.645,0.536,3.248,1.708,3.792,2.13v-0.647
	c-0.114-0.525-0.205-1.063-0.26-1.606c0,0-0.821-1.054-1.895-2.21c0,0-4.707-1.029-6.618,1.807c-1.91,2.837-1.1,4.751-2.257,5.344
	c-1.16,0.595-1.449,3.035,1.968,1.848c3.417-1.188,4.284-3.432,4.284-3.432c-2.953-1.846-0.867,1.057-2.662,1.715
	c-1.795,0.66-2.259-2.11-0.812-4.42C232.545,320.841,233.528,321.962,235.556,322.621"/>
<path fill-rule="evenodd" clip-rule="evenodd" fill="#1C5229" d="M237.193,320.287c1.074,1.156,1.895,2.21,1.895,2.21
	c-0.077-0.752-0.089-1.512,0-2.251c0.058-0.504,0.147-1.014,0.26-1.522v-0.938c-7.621-8.642-8.899-4.061-10.277-2.752
	c-1.389,1.32-1.795,4.816-0.983,6.004c0.81,1.188,3.357-4.09,5.326-3.693C234.455,317.553,235.986,318.986,237.193,320.287"/>
<path fill-rule="evenodd" clip-rule="evenodd" fill="#248641" d="M239.088,320.246c-0.089,0.739-0.077,1.499,0,2.251
	c0.055,0.543,0.146,1.081,0.26,1.606v-5.38C239.235,319.232,239.146,319.742,239.088,320.246"/>
<path fill-rule="evenodd" clip-rule="evenodd" fill="#EA3924" d="M236.799,305.796c-0.086,1.354,0.666,3.828,0.666,3.828
	s-0.23-2.078,0.812-2.574c0.365-0.173,0.723,0.068,1.071,0.46v-7.334c-0.161,0.11-0.312,0.255-0.434,0.442
	c-0.58,0.891-0.839,2.44-0.839,2.44s-0.522-0.89-1.101-1.188c-0.579-0.297-1.361-0.396-1.361-0.396l1.333,1.65l0.172,0.527
	c0,0-0.463-0.099-1.273-0.032c-0.81,0.065-1.622,2.176-1.622,2.176H236.799"/>
<path fill-rule="evenodd" clip-rule="evenodd" fill="#B42024" d="M238.553,304.723c0.328,0,0.595-0.228,0.595-0.503
	s-0.267-0.501-0.595-0.501s-0.595,0.226-0.595,0.501S238.225,304.723,238.553,304.723"/>
<path fill-rule="evenodd" clip-rule="evenodd" fill="#B3B4B4" d="M239.348,332.234v5.588h12.972c1.854,0,3.371-1.727,3.371-3.839
	v-3.349c-3.066,1.039-6.31,1.6-9.661,1.6H239.348"/>
<path fill-rule="evenodd" clip-rule="evenodd" fill="#808080" d="M246.029,332.234c3.352,0,6.595-0.56,9.661-1.6v2.606
	c-3.066,1.04-6.31,1.599-9.661,1.599h-6.682v-2.605H246.029"/>
<path fill-rule="evenodd" clip-rule="evenodd" fill="#D2A434" d="M239.348,270.449c9.287,3.734,16.312,12.93,18.106,24.2h-18.106
	V270.449"/>
<path fill-rule="evenodd" clip-rule="evenodd" fill="#FEE9A5" d="M239.348,273.407c7.938,3.543,13.929,11.512,15.634,21.242h-15.634
	V273.407"/>
<path fill-rule="evenodd" clip-rule="evenodd" fill="#FDD34C" d="M239.348,276.408c6.59,3.312,11.553,10.054,13.147,18.241h-13.147
	V276.408"/>
<path fill-rule="evenodd" clip-rule="evenodd" fill="#FEE9A5" d="M239.348,279.474c5.242,3.023,9.19,8.536,10.648,15.176h-10.648
	V279.474"/>
<path fill-rule="evenodd" clip-rule="evenodd" fill="#FDD34C" d="M239.348,282.633c3.901,2.654,6.853,6.933,8.132,12.017h-8.132
	V282.633"/>
<path fill-rule="evenodd" clip-rule="evenodd" fill="#FEE9A5" d="M239.348,285.955c2.573,2.151,4.548,5.178,5.585,8.694h-5.585
	V285.955"/>
<path fill-rule="evenodd" clip-rule="evenodd" fill="#FDD34C" d="M239.348,289.58c1.279,1.429,2.305,3.15,2.991,5.069h-2.991V289.58
	"/>
<path fill-rule="evenodd" clip-rule="evenodd" fill="#FEE9A5" d="M239.348,294.013c0.111,0.208,0.216,0.421,0.315,0.637h-0.315
	V294.013"/>
<path fill-rule="evenodd" clip-rule="evenodd" fill="#D2A434" d="M251.713,273.502c12.114,0,22.419,8.83,26.23,21.147h-38.596
	v-17.851C243.072,274.689,247.271,273.502,251.713,273.502"/>
<path fill-rule="evenodd" clip-rule="evenodd" fill="#E6C589" d="M251.713,276.271c10.752,0,19.941,7.62,23.637,18.378h-36.002
	v-14.718C243.007,277.603,247.224,276.271,251.713,276.271"/>
<path fill-rule="evenodd" clip-rule="evenodd" fill="#D2A434" d="M251.713,279.042c9.382,0,17.445,6.417,21.002,15.607h-33.367
	v-11.487C242.916,280.555,247.158,279.042,251.713,279.042"/>
<path fill-rule="evenodd" clip-rule="evenodd" fill="#E6C589" d="M251.713,281.812c8.002,0,14.931,5.223,18.312,12.837h-30.678
	v-8.113C242.785,283.571,247.069,281.812,251.713,281.812"/>
<path fill-rule="evenodd" clip-rule="evenodd" fill="#D2A434" d="M251.713,284.582c6.607,0,12.385,4.039,15.539,10.067h-27.904
	v-4.495C242.581,286.699,246.93,284.582,251.713,284.582"/>
<path fill-rule="evenodd" clip-rule="evenodd" fill="#E6C589" d="M251.713,287.354c5.184,0,9.778,2.872,12.627,7.296h-24.992v-0.396
	C242.212,290.056,246.685,287.354,251.713,287.354"/>
<path fill-rule="evenodd" clip-rule="evenodd" fill="#D2A434" d="M251.713,290.124c3.7,0,7.046,1.733,9.446,4.525h-18.892
	C244.667,291.857,248.013,290.124,251.713,290.124"/>
<path fill-rule="evenodd" clip-rule="evenodd" fill="#E6C589" d="M251.713,292.894c2.033,0,3.935,0.642,5.558,1.756h-11.115
	C247.778,293.535,249.68,292.894,251.713,292.894"/>
</svg>
