<?xml version="1.0" encoding="utf-8"?>
<!-- Generator: Adobe Illustrator 16.0.4, SVG Export Plug-In . SVG Version: 6.00 Build 0)  -->
<!DOCTYPE svg PUBLIC "-//W3C//DTD SVG 1.1//EN" "http://www.w3.org/Graphics/SVG/1.1/DTD/svg11.dtd">
<svg version="1.1" id="Layer_1" xmlns="http://www.w3.org/2000/svg" xmlns:xlink="http://www.w3.org/1999/xlink" x="0px" y="0px"
	 width="2945px" height="2974px" viewBox="0 0 2945 2974" enable-background="new 0 0 2945 2974" xml:space="preserve">
<path fill="#2EAAFF" stroke="#000000" stroke-width="1.5021" stroke-miterlimit="10" d="M0,0h2944v2991H0V0z"/>
<g opacity="0.4">
	<path opacity="0.3" fill="#EBFFFF" enable-background="new    " d="M71.436,2170H56.453v123h14.983
		c8.626,0,14.017-4.04,14.017-16.36v-89.698C85.453,2174.609,80.062,2170,71.436,2170 M1523.45,1273.98V1210.6
		c0-8.38-3.63-11.569-9.5-11.569s-9.5,3.188-9.5,11.569v63.381c0,8.38,3.63,11.56,9.5,11.56S1523.45,1282.36,1523.45,1273.98
		 M162.663,819.001h33.556l-16.778-112.067L162.663,819.001 M113.453,2632.17v-155.1c0-21.302-9.239-29.07-24.153-29.07H62.453v213
		H89.3C104.214,2661,113.453,2653.479,113.453,2632.17 M2320.45,1858.84v-77.12c0-10.2-4.86-14.08-12-14.08s-12,3.88-12,14.08v77.12
		c0,10.2,4.86,14.08,12,14.08S2320.45,1869.04,2320.45,1858.84 M595.453,2168.21c-8.625,0-14,4.68-14,17v93.16
		c0,12.319,5.375,17,14,17c8.626,0,14-4.681,14-17v-93.16C609.453,2172.89,604.079,2168.21,595.453,2168.21 M1696.74,1758h39.39
		l-19.7-131.55L1696.74,1758 M1583.57,2213.41l-8.92,59.59h17.84L1583.57,2213.41 M113.453,256.647V101.546
		c0-21.305-9.239-28.545-24.153-28.545H62.453v213H89.3C104.214,286.001,113.453,277.952,113.453,256.647 M1602.36,1454h24.899
		l-12.449-83.17L1602.36,1454 M1807.45,1925.93c-13.67,0-22,7.432-22,26.96v147.7c0,19.54,8.33,26.96,22,26.96
		c13.68,0,22-7.42,22-26.96v-147.699C1829.45,1933.36,1821.13,1925.93,1807.45,1925.93 M1696.74,576.001h39.39l-19.7-131.551
		L1696.74,576.001 M1842.89,1264h17.771l-8.88-59.35L1842.89,1264 M1851.78,22.648l-8.891,59.353h17.771L1851.78,22.648
		 M162.663,2001h33.556l-16.778-112.07L162.663,2001 M977.209,747.001h-23.756v196h23.756c13.676,0,22.244-7.372,22.244-26.909
		V773.866C999.453,754.33,990.885,747.001,977.209,747.001 M113.453,1438.41v-155.1c0-21.311-9.239-29.311-24.153-29.311H62.453v213
		H89.3C104.214,1467,113.453,1459.72,113.453,1438.41 M1807.45,744.17c-13.67,0-22,7.424-22,26.961v147.697
		c0,19.536,8.33,26.96,22,26.96c13.68,0,22-7.424,22-26.96V771.131C1829.45,751.594,1821.13,744.17,1807.45,744.17 M71.436,988.001
		H56.453V1112h14.983c8.626,0,14.017-4.8,14.017-17.12v-89.71C85.453,992.85,80.062,988.001,71.436,988.001 M1574.65,1091h17.84
		l-8.92-59.59L1574.65,1091 M994.453,69.162c-14.913,0-24,8.096-24,29.401v161.066c0,21.306,9.087,29.402,24,29.402
		c14.917,0,23.997-8.096,23.997-29.402V98.563C1018.45,77.258,1009.37,69.162,994.453,69.162 M2430.35,1241.1L2412.4,1361h35.899
		L2430.35,1241.1 M949.453,2294.84c5.892,0,10-3.188,10-11.608V2219.6c0-8.42-4.108-11.618-10-11.618c-5.893,0-10,3.198-10,11.618
		v63.632C939.453,2291.65,943.561,2294.84,949.453,2294.84 M2804.25,1091h17.85l-8.92-59.59L2804.25,1091 M939.453,1037.83v63.64
		c0,8.41,4.107,11.61,10,11.61c5.892,0,10-3.2,10-11.61v-63.64c0-8.41-4.108-11.61-10-11.61
		C943.561,1026.22,939.453,1029.42,939.453,1037.83 M2308.45,585.88c-7.14,0-12,3.876-12,14.078v77.121
		c0,10.201,4.86,14.078,12,14.078s12-3.877,12-14.078v-77.121C2320.45,589.756,2315.59,585.88,2308.45,585.88 M994.453,2444.689
		c-14.913,0-24,8.091-24,29.399v161.062c0,21.31,9.087,29.408,24,29.408c14.917,0,23.997-8.1,23.997-29.408V2474.09
		C1018.45,2452.779,1009.37,2444.689,994.453,2444.689 M2440.45,2207.98c-5.89,0-10,3.198-10,11.618v63.632
		c0,8.42,4.11,11.608,10,11.608s10-3.188,10-11.608V2219.6C2450.45,2211.18,2446.34,2207.98,2440.45,2207.98 M994.453,1250.93
		c-14.913,0-24,8.09-24,29.4v161.061c0,21.31,9.087,29.399,24,29.399c14.917,0,23.997-8.09,23.997-29.399V1280.33
		C1018.45,1259.02,1009.37,1250.93,994.453,1250.93 M2431.09,2077h30.301l-15.15-101.2L2431.09,2077 M2759.62,1846h21.63
		l-10.811-72.22L2759.62,1846 M2431.09,896.001h30.301l-15.15-101.205L2431.09,896.001 M2430.35,59.096L2412.4,179.001h35.899
		L2430.35,59.096 M967.953,1806.09c13.007,0,21.5-7.06,21.5-25.64v-140.47c0-18.58-8.493-25.642-21.5-25.642
		c-13.006,0-21.5,7.062-21.5,25.642v140.47C946.453,1799.03,954.947,1806.09,967.953,1806.09 M999.453,2097.86v-142.23
		c0-19.54-8.568-26.63-22.244-26.63h-23.756v195h23.756C990.885,2124,999.453,2117.39,999.453,2097.86 M2759.62,665.001h21.63
		l-10.811-72.225L2759.62,665.001 M2813.18,2213.41l-8.93,59.59h17.85L2813.18,2213.41 M1614.811,188.833l-12.45,83.168h24.899
		L1614.811,188.833 M2450.45,1101.47v-63.64c0-8.41-4.11-11.61-10-11.61s-10,3.2-10,11.61v63.64c0,8.41,4.11,11.61,10,11.61
		S2450.45,1109.88,2450.45,1101.47 M967.953,624.328c13.007,0,21.5-7.062,21.5-25.641V458.217c0-18.581-8.493-25.641-21.5-25.641
		c-13.006,0-21.5,7.06-21.5,25.641v140.471C946.453,617.267,954.947,624.328,967.953,624.328 M1602.36,2647h24.899l-12.449-83.17
		L1602.36,2647 M2770.439,2967.93l-0.909,6.07h1.819L2770.439,2967.93 M2412.4,2555h35.899l-17.95-119.9L2412.4,2555 M1112.45,2923
		h47v51h-47V2923z M1696.74,2952h39.39l-19.7-131.55L1696.74,2952 M1868.45,2923h46v51h-46V2923z M989.453,2833.74
		c0-18.58-8.493-25.642-21.5-25.642c-13.006,0-21.5,7.062-21.5,25.642V2974h43V2833.74 M1842.89,2458h17.771l-8.88-59.35
		L1842.89,2458 M2308.51,2961.41c-6.79,0-11.17,3.5-11.59,12.59h23.17C2319.67,2964.91,2315.29,2961.41,2308.51,2961.41
		 M1322.17,2213.41l-8.92,59.59h17.84L1322.17,2213.41 M595.453,986.442c-8.625,0-14,4.683-14,17.008v93.149
		c0,12.33,5.375,17.011,14,17.011c8.626,0,14-4.681,14-17.011v-93.149C609.453,991.125,604.079,986.442,595.453,986.442
		 M1322.17,1031.41l-8.92,59.59h17.84L1322.17,1031.41 M1513.95,2392.79c-5.87,0-9.5,3.19-9.5,11.57v63.38
		c0,8.38,3.63,11.568,9.5,11.568s9.5-3.188,9.5-11.568v-63.38C1523.45,2395.98,1519.82,2392.79,1513.95,2392.79 M1513.95,103.781
		c5.87,0,9.5-3.188,9.5-11.569V28.835c0-8.383-3.63-11.568-9.5-11.568s-9.5,3.185-9.5,11.568v63.377
		C1504.45,100.595,1508.08,103.781,1513.95,103.781"/>
	<path opacity="0.3" fill="#EBFFFF" enable-background="new    " d="M160.453,254.516v-150.84c0-47.723-23.429-73.675-70.301-73.675
		H16.453v298h73.699C137.024,328.001,160.453,302.24,160.453,254.516 M62.453,286.001v-213H89.3c14.914,0,24.153,7.24,24.153,28.545
		v155.101c0,21.305-9.239,29.354-24.153,29.354H62.453z M335.453,286.001h-81v-88h64v-42h-64v-83h81v-43h-128v298h128V286.001
		 M505.453,286.001h-77v-256h-47v298h124V286.001 M548.453,30.001h47v298h-47V30.001z M712.453,331.641
		c46.019,0,70-27.271,70-74.994v-39.646h-44v42.628c0,21.306-9.586,28.975-24.5,28.975c-14.913,0-24.5-7.669-24.5-28.975V98.563
		c0-21.305,9.587-29.401,24.5-29.401c14.914,0,24.5,8.096,24.5,29.401v32.438h44v-29.455c0-47.724-23.981-74.994-70-74.994
		c-46.02,0-70,27.271-70,74.994v155.101C642.453,304.37,666.434,331.641,712.453,331.641 M828.453,30.001h47v298h-47V30.001z
		 M994.453,26.552c-46.02,0-71,27.271-71,74.994v155.101c0,47.723,24.98,74.994,71,74.994c46.017,0,70.997-27.271,70.997-74.994
		V101.546C1065.45,53.822,1040.47,26.552,994.453,26.552 M1018.45,259.629c0,21.306-9.08,29.402-23.997,29.402
		c-14.913,0-24-8.096-24-29.402V98.563c0-21.305,9.087-29.401,24-29.401c14.917,0,23.997,8.096,23.997,29.401V259.629z
		 M1181.95,332.067c46.02,0,69.5-27.271,69.5-74.994V30.001h-44v230.055c0,21.306-9.08,28.976-24,28.976c-14.91,0-24-7.67-24-28.976
		V30.001h-47v227.072C1112.45,304.796,1135.93,332.067,1181.95,332.067 M1366.27,331.641c46.021,0,69.851-27.271,69.851-74.994
		c0-85.22-91.62-96.725-91.62-158.084c0-21.305,8.561-29.401,23.48-29.401c14.909,0,23.47,8.096,23.47,29.401v12.438h44v-9.455
		c0-47.724-23.32-74.994-68.92-74.994c-45.591,0-68.971,27.271-68.971,74.994c0,85.22,91.641,96.725,91.641,158.083
		c0,21.306-9.46,28.975-24.38,28.975c-14.91,0-24.37-7.669-24.37-28.975v-21.628h-44v18.646
		C1296.45,304.37,1320.25,331.641,1366.27,331.641 M977.991,708.001h-67.538v274h67.538c42.979,0,64.459-24.1,64.459-67.862V775.82
		C1042.45,732.058,1020.97,708.001,977.991,708.001 M999.453,916.092c0,19.537-8.568,26.909-22.244,26.909h-23.756v-196h23.756
		c13.676,0,22.244,7.329,22.244,26.865V916.092z M1202.45,747.001v-39h-117v274h117v-39h-74v-80h59v-40h-59v-76H1202.45
		 M1245.45,708.001v274h114v-39h-71v-235H1245.45 M1398.45,708.001h43v274h-43V708.001z M1484.45,916.092
		c0,43.762,21.8,68.77,64,68.77s64-25.008,64-68.77v-36.091h-40v38.827c0,19.536-8.82,26.568-22.5,26.568
		c-13.67,0-22.5-7.032-22.5-26.568V771.131c0-19.537,8.83-26.961,22.5-26.961c13.68,0,22.5,7.424,22.5,26.961v28.87h40v-26.135
		c0-43.763-21.8-68.771-64-68.771s-64,25.007-64,68.771V916.092 M1655.45,708.001h43v274h-43V708.001z M1872.45,773.866
		c0-43.763-22.8-68.771-65-68.771s-65,25.008-65,68.771v142.226c0,43.763,22.8,68.77,65,68.77s65-25.008,65-68.77V773.866
		 M1829.45,918.828c0,19.536-8.32,26.96-22,26.96c-13.67,0-22-7.424-22-26.96V771.131c0-19.537,8.33-26.961,22-26.961
		c13.68,0,22,7.424,22,26.961V918.828z M1958.45,919.218V708.001h-43v208.482c0,43.762,21.8,68.769,64,68.769s64-25.007,64-68.769
		V708.001h-41v211.217c0,19.537-8.32,26.57-22,26.57C1966.78,945.788,1958.45,938.755,1958.45,919.218 M2084.45,899.001v17.091
		c0,43.762,21.67,68.77,63.87,68.77c42.199,0,63.97-25.008,63.97-68.77c0-78.146-84.06-88.695-84.06-144.961
		c0-19.537,7.938-26.961,21.608-26.961c13.68,0,21.61,7.424,21.61,26.961v10.87h40v-8.135c0-43.763-21.32-68.771-63.12-68.771
		c-41.812,0-63.22,25.007-63.22,68.771c0,78.146,84.05,88.695,84.05,144.962c0,19.536-8.681,26.568-22.351,26.568
		c-13.681,0-22.359-7.032-22.359-26.568v-19.827H2084.45 M71.93,964.001H29.453V1136H71.93c27.109,0,40.523-14.75,40.523-42.35
		v-87.25C112.453,978.803,99.039,964.001,71.93,964.001 M85.453,1094.88c0,12.32-5.391,17.12-14.017,17.12H56.453V988.001h14.983
		c8.626,0,14.017,4.849,14.017,17.169V1094.88L85.453,1094.88z M213.453,988.001v-24h-74V1136h74v-24h-47v-51h38v-25h-38v-47.999
		H213.453 M240.453,964.001V1136h72v-24h-45V964.001H240.453 M336.453,964.001h28V1136h-28V964.001z M472.453,1022v-16.83
		c0-27.6-13.884-43.372-40.5-43.372s-40.5,15.772-40.5,43.372v89.71c0,27.601,13.884,43.37,40.5,43.37s40.5-15.77,40.5-43.37V1072
		h-26v24.6c0,12.33-5.374,16.761-14,16.761c-8.625,0-14-4.431-14-16.761v-93.149c0-12.325,5.375-17.008,14-17.008
		c8.626,0,14,4.683,14,17.008V1022H472.453 M499.453,964.001h27V1136h-27V964.001z M636.453,1094.88v-89.71
		c0-27.6-14.884-43.372-41.5-43.372s-41.5,15.772-41.5,43.372v89.71c0,27.601,14.884,43.37,41.5,43.37
		S636.453,1122.48,636.453,1094.88 M609.453,1096.6c0,12.33-5.374,17.011-14,17.011c-8.625,0-14-4.681-14-17.011v-93.149
		c0-12.325,5.375-17.008,14-17.008c8.626,0,14,4.683,14,17.008V1096.6z M663.453,964.001v131.119c0,27.61,13.384,43.38,40,43.38
		s40-15.77,40-43.38V964.001h-25v132.849c0,12.32-5.374,16.761-14,16.761c-8.625,0-14-4.44-14-16.761V964.001H663.453 M850.453,1011
		v-5.83c0-27.6-13.721-43.372-40.09-43.372c-26.37,0-40.008,15.772-40.008,43.372c0,49.29,52.943,55.95,52.943,91.43
		c0,12.33-5.297,16.761-13.923,16.761c-8.625,0-13.923-4.431-13.923-16.761V1084h-26v10.88c0,27.601,13.841,43.37,40.457,43.37
		s40.437-15.77,40.437-43.37c0-49.29-52.976-55.939-52.976-91.43c0-12.325,4.915-17.008,13.541-17.008
		c8.625,0,13.541,4.683,13.541,17.008v7.55H850.453 M35.453,579.001h29v-59.532l35.744-120.468H73.082L51.39,481.379l-21.693-82.378
		H0l35.453,120.468V579.001 M153.453,538.062V399.001h-29v137.254c0,28.923,14.61,45.45,42.5,45.45c27.89,0,42.5-16.527,42.5-45.45
		V399.001h-27v139.062c0,12.912-5.462,17.561-14.5,17.561S153.453,550.975,153.453,538.062 M358.453,579.001v-180h-39.432
		l-19.369,128.345l-20.917-128.345h-39.282v180h25V451.552l20.738,127.449h26.857l19.405-129.256v129.256H358.453 M508.453,399.001
		h-39.688l-19.367,128.345L428.48,399.001h-39.027v180h24V451.552l21.483,127.449h26.856l19.66-129.256v129.256h27V399.001
		 M569.453,579.001h29v-59.532l35.475-120.468h-27.115l-21.691,82.378l-21.693-82.378H533.73l35.723,120.468V579.001
		 M2342.22,314.001l-21.689,82.379l-21.69-82.379h-29.699l36.31,120.527v59.473h28v-59.473l35.89-120.527H2342.22 M2404.45,314.001
		v137.313c0,28.923,14.61,45.449,42.5,45.449s42.5-16.525,42.5-45.449V314.001h-27v139.121c0,12.912-5.96,17.56-15,17.56
		c-9.03,0-15-4.646-15-17.56V314.001H2404.45 M2589.45,442.346l-20.92-128.345h-39.08v180h24v-127.39l21.54,127.39h26.859
		l19.601-129.197v129.197h27v-180h-39.63L2589.45,442.346 M2749.53,442.346l-20.92-128.345h-39.16v180h24v-127.39l21.611,127.39
		h26.858l19.53-129.197v129.197h27v-180h-39.56L2749.53,442.346 M2895.58,396.38l-21.689-82.379h-29.701l36.261,120.527v59.473h28
		v-59.473l35.93-120.527h-27.11L2895.58,396.38 M700.453,894.092l93.006-28.091h45.994v-22h-45.994l-93.006-27.33v20.952
		l63.653,16.761l-63.653,16.761V894.092 M806.429,732.001H700.453v21h107.373c9.977,0,13.568,4.516,13.568,11.5
		s-3.592,11.5-13.568,11.5H700.453v22h105.976c22.35,0,35.119-11.45,35.119-33S828.778,732.001,806.429,732.001 M700.453,709.001
		h139v-19H740.98l98.473-16.275v-20.752l-99.869-14.973h99.869v-21h-139v30.585l99.171,14.966l-99.171,16.162V709.001
		 M700.453,594.001h139v-20H740.98l98.473-15.983v-20.752l-99.869-15.265h99.869v-21h-139v30.877l99.171,14.966l-99.171,16.162
		V594.001 M700.453,404.258v20.952l63.653,16.761l-63.653,16.762v22.946l93.006-27.678h45.994v-22h-45.994L700.453,404.258
		 M2213.45,640.001v-29h-62.71l-126.29-37.929v28.381l86.229,22.705l-86.229,22.704v31.084l126.29-37.945H2213.45 M2215.88,503.001
		c0-29.192-17.3-44-47.569-44h-143.859v28h145.75c13.51,0,18.379,5.54,18.379,15s-4.869,15-18.379,15h-145.75v30h143.859
		C2198.58,547.001,2215.88,532.193,2215.88,503.001 M2213.45,402.001h-133.8l133.8-22.562v-28.111l-135.69-20.326h135.69v-28h-189
		v41.028l134.34,20.271l-134.34,21.895v41.806h189V402.001 M2213.45,245.001h-133.8l133.8-22.301v-28.111l-135.69-20.588h135.69v-28
		h-189v41.291l134.34,20.271l-134.34,21.895v41.543h189V245.001 M2213.45,82.001v-30h-62.71l-126.29-37.584v28.381l86.229,22.705
		l-86.229,22.705v31.084l126.29-37.291H2213.45 M1514.45,120.547c18.109,0,28-10.73,28-29.508v-61.03
		c0-18.779-9.891-29.509-28-29.509c-18.102,0-28,10.73-28,29.509v61.03C1486.45,109.817,1496.35,120.547,1514.45,120.547
		 M1504.45,28.835c0-8.383,3.63-11.568,9.5-11.568s9.5,3.185,9.5,11.568v63.377c0,8.383-3.63,11.569-9.5,11.569
		s-9.5-3.188-9.5-11.569V28.835z M1579.45,69.001h21v50h19v-117h-19v50h-21v-50h-19v117h19V69.001 M1695.45,119.001h19V80.308
		l23.16-78.307h-17.601l-14.08,53.484l-14.09-53.484h-19.279l22.89,78.307V119.001 M1804.45,102.001h-32v-34h25v-17h-25v-32h32v-17
		h-50v117h50V102.001 M1840.54,98.001h22.64l3.182,21h18.608l-18.779-117h-26.99l-18.78,117h16.94L1840.54,98.001 M1851.78,22.648
		l8.88,59.353h-17.771L1851.78,22.648z M1920.45,69.001h21v50h19v-117h-19v50h-21v-50h-19v117h19V69.001 M967.953,661.489
		c40.137,0,62.497-23.783,62.497-65.404V460.818c0-41.62-22.36-65.403-62.497-65.403c-40.134,0-62.5,23.783-62.5,65.403v135.267
		C905.453,637.706,927.819,661.489,967.953,661.489 M946.453,458.217c0-18.581,8.494-25.641,21.5-25.641
		c13.007,0,21.5,7.06,21.5,25.641v140.47c0,18.58-8.493,25.642-21.5,25.642c-13.006,0-21.5-7.062-21.5-25.642V458.217z
		 M1112.45,547.001h47v112h41v-261h-41v112h-47v-112h-41v261h41V547.001 M1393.17,516.545l-31.21-118.544h-42.74l51.23,174.301
		v86.699h41v-86.699l51.96-174.301h-39.021L1393.17,516.545 M1611.45,436.001v-38h-112v261h112v-38h-71v-76h56v-37h-56v-72H1611.45
		 M1688.561,398.001l-41.62,261h37.529l7.062-48h50.17l7.061,48h41.25l-41.62-261H1688.561 M1696.74,576.001l19.689-131.551
		l19.699,131.551H1696.74L1696.74,576.001z M1827.45,398.001v261h41v-112h46v112h42v-261h-42v112h-46v-112H1827.45 M1.453,700.001
		h36v190h35v-190h37v-32h-108V700.001 M206.667,668.001h-50.969l-35.456,222h31.974l6.014-40h42.738l6.015,40h35.14L206.667,668.001
		 M162.663,819.001l16.778-112.067l16.778,112.067H162.663z M304.233,719.121c0-15.829,6.53-21.844,17.61-21.844
		c11.08,0,17.61,6.015,17.61,21.844v8.88h33v-6.664c0-35.456-17.648-55.717-51.521-55.717c-33.874,0-51.404,20.261-51.404,55.717
		c0,63.315,68.005,71.862,68.005,117.449c0,15.829-6.96,21.526-18.04,21.526s-18.04-5.697-18.04-21.526v-15.785h-33v13.569
		c0,35.456,17.732,55.717,51.922,55.717s51.92-20.261,51.92-55.717C372.295,773.255,304.233,764.708,304.233,719.121
		 M508.453,668.001h-108v32h36v190h35v-190h37V668.001 M613.453,890.001v-73.692l43.943-148.308h-33.24l-26.594,100.987
		l-26.592-100.987h-36.405l43.888,148.308v73.692H613.453 M1501.45,1129h19v-101h19v-17h-57v17h19V1129 M1570.939,1011l-18.851,118
		h17l3.2-22h22.729l3.19,22h18.689l-18.859-118H1570.939 M1574.65,1091l8.92-59.59l8.92,59.59H1574.65L1574.65,1091z M1637.45,1093
		v7.29c0,18.85,9.52,29.62,27.7,29.62c18.18,0,27.648-10.771,27.648-29.62c0-33.67-36.17-38.21-36.17-62.46
		c0-8.41,3.521-11.61,9.41-11.61c5.898,0,9.41,3.2,9.41,11.61v5.17h17v-3.99c0-18.85-9.141-29.619-27.15-29.619
		c-18.02,0-27.22,10.77-27.22,29.619c0,33.67,36.22,38.221,36.22,62.46c0,8.41-3.53,11.44-9.42,11.44s-9.43-3.03-9.43-11.44V1093
		H1637.45 M1714.45,1028h19v101h19v-101h19v-17h-57V1028 M1834.45,1129v-39.49l23.46-78.51h-17.681l-14.14,53.7l-14.14-53.7H1792.6
		l23.851,78.51V1129H1834.45 M2468.45,1100.29v-61.28c0-18.85-9.82-29.62-28-29.62c-18.181,0-28,10.771-28,29.62v61.28
		c0,18.85,9.819,29.62,28,29.62C2458.63,1129.91,2468.45,1119.14,2468.45,1100.29 M2430.45,1101.47v-63.64
		c0-8.41,4.11-11.61,10-11.61s10,3.2,10,11.61v63.64c0,8.41-4.11,11.61-10,11.61S2430.45,1109.88,2430.45,1101.47z M2494.45,1011
		v118h18v-51h21v51h19v-118h-19v50h-21v-50H2494.45 M2619.78,1011l23.67,78.51V1129h18v-39.49L2685.1,1011h-17.68l-14.14,53.7
		l-14.14-53.7H2619.78 M2758.45,1028v-17h-50v118h50v-17h-32v-35h26v-17h-26v-32H2758.45 M2827.82,1129h18.688l-18.858-118h-27.102
		l-18.85,118h17l3.199-22h22.721L2827.82,1129 M2804.25,1091l8.93-59.59l8.92,59.59H2804.25L2804.25,1091z M2909.45,1061h-21v-50
		h-18v118h18v-51h21v51h19v-118h-19V1061 M1509.45,324.001h26v-141h27v-23h-80v23h27V324.001 M1570.88,324.001h23.73l4.46-30h31.72
		l4.46,30h26.08l-26.312-164h-37.83L1570.88,324.001 M1614.811,188.833l12.449,83.168h-24.898L1614.811,188.833L1614.811,188.833z
		 M1681.58,199.024c0,46.988,50.51,53.331,50.51,87.163c0,11.747-5.09,15.976-13.32,15.976c-8.22,0-13.318-4.229-13.318-15.976
		v-12.186h-25v10.541c0,26.313,13.37,41.35,38.739,41.35c25.381,0,38.641-15.036,38.641-41.35c0-46.987-50.46-53.331-50.46-87.162
		c0-11.747,4.819-16.211,13.04-16.211c8.229,0,13.04,4.464,13.04,16.211v6.621h24v-4.977c0-26.313-12.79-41.349-37.931-41.349
		S1681.58,172.711,1681.58,199.024 M1778.45,183.001h27v141h26v-141h27v-23h-80V183.001 M1925.12,234.946l-19.74-74.945h-27.01
		l33.08,109.505v54.495h25v-54.495l33.069-109.505h-24.67L1925.12,234.946 M2308.45,565.479c-22.03,0-34,13.057-34,35.907v74.266
		c0,22.851,11.97,35.909,34,35.909c22.04,0,34-13.059,34-35.909v-74.266C2342.45,578.535,2330.49,565.479,2308.45,565.479
		 M2320.45,677.079c0,10.201-4.86,14.078-12,14.078s-12-3.877-12-14.078v-77.121c0-10.202,4.86-14.078,12-14.078s12,3.876,12,14.078
		V677.079L2320.45,677.079z M2375.45,567.001v143h23v-61h25v61h23v-143h-23v61h-25v-61H2375.45 M2582.45,710.001v-47.408
		l28.67-95.592h-21.42l-17.14,65.084l-17.141-65.084h-23.46l28.49,95.592v47.408H2582.45 M2641.45,710.001h61v-20h-39v-42h31v-21
		h-31v-39h39v-21h-61V710.001 M2755.13,567.001l-22.851,143h20.609l3.88-26h27.541l3.879,26h22.642l-22.851-143H2755.13
		 M2759.619,665.001l10.819-72.225l10.812,72.225H2759.619L2759.619,665.001z M2841.45,567.001v143h23v-61h25v61h23v-143h-23v61h-25
		v-61H2841.45 M921.453,1039.01v61.28c0,18.85,9.82,29.62,28,29.62c18.181,0,28-10.771,28-29.62v-61.28
		c0-18.85-9.819-29.62-28-29.62C931.273,1009.39,921.453,1020.16,921.453,1039.01 M959.453,1037.83v63.64
		c0,8.41-4.108,11.61-10,11.61c-5.893,0-10-3.2-10-11.61v-63.64c0-8.41,4.107-11.61,10-11.61
		C955.345,1026.22,959.453,1029.42,959.453,1037.83z M1061.45,1129v-118h-19v50h-21v-50h-18v118h18v-51h21v51H1061.45 M1170.45,1129
		v-39.49l23.64-78.51h-17.68l-14.141,53.7l-14.14-53.7h-19.35l23.67,78.51V1129H1170.45 M1267.45,1028v-17h-50v118h50v-17h-32v-35
		h26v-17h-26v-32H1267.45 M1310.89,1107h22.73l3.2,22h18.68l-18.85-118h-27.11l-18.85,118h17L1310.89,1107 M1322.17,1031.41
		l8.92,59.59h-17.84L1322.17,1031.41L1322.17,1031.41z M1379.45,1011v118h18v-51h21v51h19v-118h-19v50h-21v-50H1379.45
		 M1967.55,1011l-14.14,53.7l-14.141-53.7h-19.35l23.53,78.51V1129h18v-39.49l23.78-78.51H1967.55 M2008.45,1011v89.46
		c0,18.85,9.318,29.62,27.5,29.62c18.18,0,27.5-10.771,27.5-29.62V1011h-18v90.63c0,8.42-3.602,11.45-9.5,11.45
		c-5.891,0-9.5-3.03-9.5-11.45V1011H2008.45 M2167.45,1129v-118h-26.11l-12.63,83.66l-13.63-83.66h-25.63v118h16v-83.76l13.84,83.76
		h17.5l12.66-84.939V1129H2167.45 M2193.45,1129h16v-83.76l14.18,83.76h17.51l12.311-84.939V1129h18v-118h-25.771l-12.619,83.66
		L2219.42,1011h-25.97V1129 M2318.45,1129h18v-39.49l23.63-78.51h-17.68l-14.141,53.7l-14.14-53.7h-19.36l23.69,78.51V1129
		 M2303.45,959.001h31v-171h33v-29h-97v29h33V959.001 M2424.8,759.001l-32.02,200h28.87l5.43-36h38.6l5.432,36h31.738l-32.02-200
		H2424.8 M2431.09,896.001l15.15-101.205l15.148,101.205H2431.09L2431.09,896.001z M2588.5,961.427
		c30.88,0,46.97-18.297,46.97-50.315c0-57.178-61.42-64.896-61.42-106.064c0-14.295,5.69-19.727,15.7-19.727
		c10,0,15.7,5.432,15.7,19.727v7.955h30v-5.954c0-32.02-15.812-50.316-46.4-50.316s-46.36,18.297-46.36,50.316
		c0,57.178,61.44,64.896,61.44,106.064c0,14.295-6.33,19.439-16.34,19.439c-10,0-16.341-5.146-16.341-19.439v-14.11h-30v12.109
		C2541.449,943.13,2557.63,961.427,2588.5,961.427 M2676.45,788.001h33v171h31v-171h33v-29h-97V788.001 M2869.29,850.199
		l-24.021-91.198h-32.879l40.06,133.812v66.188h31v-66.188l39.87-133.812h-30.02L2869.29,850.199 M2278.45,254.001h38v-203h39v-34
		h-115v34h38V254.001 M2407.66,211.001h45.72l6.44,43h37.59l-37.93-237h-54.53l-37.94,237h34.21L2407.66,211.001 M2430.35,59.096
		l17.95,119.905H2412.4L2430.35,59.096z M2581.07,257.176c36.58,0,55.59-21.678,55.59-59.614c0-67.743-72.811-76.889-72.811-125.664
		c0-16.935,6.949-23.371,18.801-23.371c11.858,0,18.8,6.436,18.8,23.371v10.103h35V74.27c0-37.937-18.681-59.614-54.92-59.614
		c-36.24,0-54.899,21.677-54.899,59.614c0,67.743,72.819,76.888,72.819,125.663c0,16.936-7.649,23.032-19.5,23.032
		c-11.86,0-19.5-6.096-19.5-23.032v-16.932h-35v14.561C2525.45,235.498,2544.49,257.176,2581.07,257.176 M2705.45,254.001h38v-203
		h39v-34h-116v34h39V254.001 M2857.45,254.001h37v-78.117l47.28-158.883h-35.57l-28.45,108.05l-28.45-108.05h-38.949l47.14,158.883
		V254.001 M160.453,1436.28v-150.84c0-47.721-23.429-73.44-70.301-73.44H16.453v298h73.699
		C137.024,1510,160.453,1484,160.453,1436.28 M62.453,1467v-213H89.3c14.914,0,24.153,8,24.153,29.311v155.1
		c0,21.31-9.239,28.59-24.153,28.59H62.453z M207.453,1510h128v-43h-81v-87h64v-43h-64v-83h81v-42h-128V1510 M505.453,1467h-77v-255
		h-47v298h124V1467 M548.453,1212h47v298h-47V1212z M712.453,1513.4c46.019,0,70-27.271,70-74.99V1399h-44v42.39
		c0,21.311-9.586,28.98-24.5,28.98c-14.913,0-24.5-7.67-24.5-28.98v-161.06c0-21.311,9.587-29.4,24.5-29.4
		c14.914,0,24.5,8.09,24.5,29.4V1312h44v-28.689c0-47.721-23.981-74.99-70-74.99c-46.02,0-70,27.27-70,74.99v155.1
		C642.453,1486.13,666.434,1513.4,712.453,1513.4 M828.453,1212h47v298h-47V1212z M994.453,1208.32c-46.02,0-71,27.27-71,74.989
		v155.101c0,47.72,24.98,74.99,71,74.99c46.017,0,70.997-27.271,70.997-74.99V1283.31
		C1065.45,1235.59,1040.47,1208.32,994.453,1208.32 M1018.45,1441.39c0,21.311-9.08,29.4-23.997,29.4c-14.913,0-24-8.09-24-29.4
		v-161.06c0-21.311,9.087-29.4,24-29.4c14.917,0,23.997,8.09,23.997,29.4V1441.39z M1181.95,1513.83c46.02,0,69.5-27.271,69.5-74.99
		V1212h-44v229.82c0,21.3-9.08,28.97-24,28.97c-14.91,0-24-7.67-24-28.97V1212h-47v226.84
		C1112.45,1486.56,1135.93,1513.83,1181.95,1513.83 M1297.61,1283.311c0,85.22,91.609,96.72,91.609,158.079
		c0,21.311-9.47,28.98-24.38,28.98c-14.92,0-24.39-7.67-24.39-28.98V1420h-44v18.41c0,47.72,23.8,74.99,69.819,74.99
		c46.021,0,69.851-27.271,69.851-74.99c0-85.22-91.62-96.72-91.62-158.08c0-21.311,8.56-29.4,23.479-29.4
		c14.91,0,23.471,8.09,23.471,29.4V1293h44v-9.689c0-47.721-23.32-74.99-68.921-74.99
		C1320.939,1208.32,1297.609,1235.59,1297.61,1283.311 M1042.45,2095.9v-138.32c0-43.76-21.48-67.58-64.459-67.58h-67.538v273
		h67.538C1020.97,2163,1042.45,2139.67,1042.45,2095.9 M953.453,2124v-195h23.756c13.676,0,22.244,7.09,22.244,26.63v142.23
		c0,19.528-8.568,26.14-22.244,26.14H953.453z M1202.45,2124h-74v-80h59v-39h-59v-76h74v-39h-117v273h117V2124 M1359.45,2124h-71
		v-234h-43v273h114V2124 M1398.45,1890h43v273h-43V1890z M1548.45,2166.63c42.2,0,64-25.01,64-68.771V2062h-40v38.59
		c0,19.54-8.82,26.57-22.5,26.57c-13.67,0-22.5-7.03-22.5-26.57v-147.699c0-19.529,8.83-26.961,22.5-26.961
		c13.68,0,22.5,7.432,22.5,26.961V1982h40v-26.37c0-43.76-21.8-68.77-64-68.77s-64,25.01-64,68.77v142.23
		C1484.45,2141.62,1506.25,2166.63,1548.45,2166.63 M1655.45,1890h43v273h-43V1890z M1872.45,1955.63c0-43.76-22.8-68.77-65-68.77
		s-65,25.01-65,68.77v142.23c0,43.76,22.8,68.77,65,68.77s65-25.01,65-68.77V1955.63 M1829.45,2100.59c0,19.54-8.32,26.96-22,26.96
		c-13.67,0-22-7.42-22-26.96v-147.699c0-19.529,8.33-26.961,22-26.961c13.68,0,22,7.432,22,26.961V2100.59z M1979.45,2167.02
		c42.2,0,64-25.01,64-68.77V1890h-41v210.98c0,19.539-8.32,26.568-22,26.568c-13.67,0-22-7.029-22-26.568V1890h-43v208.25
		C1915.45,2142.01,1937.25,2167.02,1979.45,2167.02 M2212.18,2097.86c0-78.15-84-88.7-84-144.972
		c0-19.528,7.96-26.959,21.642-26.959c13.67,0,21.63,7.431,21.63,26.959V1964h40v-8.37c0-43.76-21.32-68.77-63.12-68.77
		c-41.812,0-63.22,25.01-63.22,68.77c0,78.15,84.05,88.7,84.05,144.96c0,19.54-8.681,26.57-22.351,26.57
		c-13.681,0-22.359-7.03-22.359-26.57V2081h-40v16.86c0,43.76,21.67,68.77,63.869,68.77S2212.18,2141.62,2212.18,2097.86
		 M71.93,2146H29.453v172H71.93c27.109,0,40.523-14.99,40.523-42.59v-87.24C112.453,2160.57,99.039,2146,71.93,2146 M85.453,2276.64
		c0,12.32-5.391,16.36-14.017,16.36H56.453v-123h14.983c8.626,0,14.017,4.61,14.017,16.939V2276.64L85.453,2276.64z M213.453,2293
		h-47v-50h38v-25h-38v-48h47v-24h-74v172h74V2293 M240.453,2146v172h72v-25h-45v-147H240.453 M336.453,2146h28v172h-28V2146z
		 M472.453,2204v-17.061c0-27.609-13.884-43.381-40.5-43.381s-40.5,15.771-40.5,43.381v89.699c0,27.602,13.884,43.38,40.5,43.38
		s40.5-15.778,40.5-43.38V2254h-26v24.37c0,12.32-5.374,16.76-14,16.76c-8.625,0-14-4.438-14-16.76v-93.16c0-12.319,5.375-17,14-17
		c8.626,0,14,4.681,14,17V2204H472.453 M499.453,2146h27v172h-27V2146z M594.953,2143.561c-26.616,0-41.5,15.771-41.5,43.381v89.699
		c0,27.601,14.884,43.379,41.5,43.379s41.5-15.778,41.5-43.379v-89.699C636.453,2159.33,621.569,2143.561,594.953,2143.561
		 M609.453,2278.37c0,12.32-5.374,17-14,17c-8.625,0-14-4.68-14-17v-93.16c0-12.319,5.375-17,14-17c8.626,0,14,4.681,14,17V2278.37z
		 M703.453,2320.26c26.616,0,40-15.77,40-43.37V2146h-25v132.61c0,12.33-5.374,16.76-14,16.76c-8.625,0-14-4.43-14-16.76V2146h-27
		v130.89C663.453,2304.49,676.837,2320.26,703.453,2320.26 M850.453,2192v-5.061c0-27.609-13.721-43.381-40.09-43.381
		c-26.37,0-40.008,15.771-40.008,43.381c0,49.279,52.943,55.939,52.943,91.431c0,12.319-5.297,16.76-13.923,16.76
		c-8.625,0-13.923-4.438-13.923-16.76V2266h-26v10.64c0,27.602,13.841,43.38,40.457,43.38s40.437-15.779,40.437-43.38
		c0-49.29-52.976-55.938-52.976-91.43c0-12.32,4.915-17,13.541-17c8.625,0,13.541,4.68,13.541,17v6.79H850.453 M35.453,1761h29
		v-59.77L100.197,1580H73.082l-21.692,82.38L29.697,1580H0l35.453,121.23V1761 M182.453,1719.83c0,12.91-5.462,17.56-14.5,17.56
		s-14.5-4.648-14.5-17.56V1580h-29v138.02c0,28.921,14.61,45.45,42.5,45.45c27.89,0,42.5-16.53,42.5-45.45V1580h-27V1719.83
		 M299.652,1708.35L278.735,1580h-39.282v181h25v-127.68L285.191,1761h26.857l19.405-129.49V1761h27v-181h-39.432L299.652,1708.35
		 M508.453,1580h-39.688l-19.367,128.35L428.48,1580h-39.027v181h24v-127.68L434.938,1761h26.855l19.66-129.49V1761h27V1580
		 M569.453,1761h29v-59.77L633.928,1580h-27.115l-21.691,82.38L563.428,1580H533.73l35.723,121.23V1761 M2342.22,1495l-21.689,82.38
		l-21.69-82.38h-29.699l36.31,121.29V1676h28v-59.71l35.89-121.29H2342.22 M2404.45,1495v138.08c0,28.92,14.61,45.45,42.5,45.45
		s42.5-16.53,42.5-45.45V1495h-27v139.89c0,12.91-5.96,17.562-15,17.562c-9.03,0-15-4.65-15-17.562V1495H2404.45 M2648.45,1495
		h-39.63l-19.37,128.35L2568.53,1495h-39.08v181h24v-127.62l21.54,127.62h26.859l19.601-129.43V1676h27V1495 M2808.45,1676v-181
		h-39.561l-19.36,128.35l-20.92-128.35h-39.159v181h24v-127.62l21.61,127.62h26.859l19.53-129.43V1676H2808.45 M2895.58,1577.38
		l-21.689-82.38h-29.701l36.261,121.29V1676h28v-59.71l35.93-121.29h-27.11L2895.58,1577.38 M839.453,2048v-22h-45.994
		l-93.006-27.57v20.96l63.653,16.761l-63.653,16.76v22.949L793.459,2048H839.453 M806.429,1914H700.453v21h107.373
		c9.977,0,13.568,4.02,13.568,11s-3.592,11-13.568,11H700.453v22h105.976c22.35,0,35.119-10.95,35.119-32.5
		S828.778,1914,806.429,1914 M839.453,1799h-139v30.35l99.171,14.971l-99.171,16.16V1891h139v-19H740.98l98.473-16.51v-20.75
		L739.584,1820h99.869V1799 M839.453,1683h-139v30.64l99.171,14.971l-99.171,16.159V1775h139v-19H740.98l98.473-16.22v-20.75
		L739.584,1704h99.869V1683 M700.453,1586.02v20.95l63.653,16.771l-63.653,16.76v22.939L793.459,1636h45.994v-22h-45.994
		L700.453,1586.02 M2213.45,1792h-62.71l-126.29-37.16v28.38l86.229,22.7l-86.229,22.71v31.08l126.29-37.71h62.71V1792
		 M2168.311,1640h-143.859v28h145.75c13.51,0,18.38,6.04,18.38,15.5s-4.87,15.5-18.38,15.5h-145.75v30h143.86
		c30.27,0,47.569-15.311,47.569-44.5S2198.58,1640,2168.311,1640 M2213.45,1484h-189v41.79l134.34,20.28l-134.34,21.89V1609h189v-26
		h-133.8l133.8-21.8v-28.11L2077.76,1513h135.69V1484 M2213.45,1328h-189v41.061l134.34,20.27l-134.34,21.89V1453h189v-26h-133.8
		l133.8-22.54v-28.11L2077.76,1356h135.69V1328 M2024.45,1224.561l86.229,22.709l-86.229,22.7v31.09l126.29-38.06h62.71v-29h-62.71
		l-126.29-37.82V1224.561 M1542.45,1272.8v-61.03c0-18.779-9.891-29.51-28-29.51c-18.102,0-28,10.73-28,29.51v61.03
		c0,18.78,9.898,29.511,28,29.511C1532.561,1302.311,1542.45,1291.58,1542.45,1272.8 M1504.45,1273.98V1210.6
		c0-8.38,3.63-11.569,9.5-11.569s9.5,3.188,9.5,11.569v63.381c0,8.38-3.63,11.56-9.5,11.56S1504.45,1282.36,1504.45,1273.98z
		 M1619.45,1301v-117h-19v50h-21v-50h-19v117h19v-50h21v50H1619.45 M1672.561,1184l22.89,78.07V1301h19v-38.93l23.16-78.07h-17.601
		l-14.08,53.49l-14.09-53.49H1672.561 M1804.45,1284h-32v-34h25v-17h-25v-33h32v-16h-50v117h50V1284 M1866.36,1301h18.608
		l-18.779-117H1839.2l-18.78,117h16.939l3.181-21h22.64L1866.36,1301 M1842.89,1264l8.892-59.35l8.88,59.35H1842.89z M1901.45,1301
		h19v-50h21v50h19v-117h-19v50h-21v-50h-19V1301 M967.953,1843.25c40.137,0,62.497-23.78,62.497-65.4v-135.27
		c0-41.62-22.36-65.4-62.497-65.4c-40.134,0-62.5,23.78-62.5,65.4v135.27C905.453,1819.47,927.819,1843.25,967.953,1843.25
		 M946.453,1639.98c0-18.58,8.494-25.642,21.5-25.642c13.007,0,21.5,7.062,21.5,25.642v140.47c0,18.58-8.493,25.64-21.5,25.64
		c-13.006,0-21.5-7.06-21.5-25.64V1639.98z M1112.45,1729h47v111h41v-260h-41v112h-47v-112h-41v260h41V1729 M1393.17,1698.54
		L1361.96,1580h-42.74l51.23,174.07V1840h41v-85.93l51.96-174.07h-39.021L1393.17,1698.54 M1611.45,1617v-37h-112v260h112v-37h-71
		v-76h56v-37h-56v-73H1611.45 M1748.76,1840h41.25l-41.62-260h-59.829l-41.62,260h37.529l7.062-47h50.17L1748.76,1840 M1696.74,1758
		l19.688-131.55l19.7,131.55H1696.74L1696.74,1758z M1914.45,1840h42v-260h-42v112h-46v-112h-41v260h41v-111h46V1840 M1.453,1882h36
		v190h35v-190h37v-32h-108V1882 M155.698,1850l-35.456,222h31.974l6.014-41h42.738l6.015,41h35.14l-35.456-222H155.698
		 M162.663,2001l16.778-112.07L196.219,2001H162.663L162.663,2001z M304.233,1900.88c0-15.819,6.53-21.84,17.61-21.84
		c11.08,0,17.61,6.021,17.61,21.84v9.12h33v-6.9c0-35.46-17.648-55.72-51.521-55.72c-33.874,0-51.404,20.26-51.404,55.72
		c0,63.32,68.005,71.86,68.005,117.45c0,15.83-6.96,21.53-18.04,21.53s-18.04-5.7-18.04-21.53V2005h-33v13.33
		c0,35.46,17.732,55.72,51.922,55.72s51.92-20.26,51.92-55.72C372.295,1955.02,304.233,1946.47,304.233,1900.88 M508.453,1850h-108
		v32h36v190h35v-190h37V1850 M613.453,2072v-73.93L657.396,1850h-33.24l-26.594,100.99L570.971,1850h-36.405l43.888,148.07V2072
		H613.453 M1501.45,2310h19v-101h19v-17h-57v17h19V2310 M1572.29,2289h22.729l3.189,21h18.689l-18.859-118h-27.102l-18.85,118h17
		L1572.29,2289 M1583.57,2213.41l8.92,59.59h-17.84L1583.57,2213.41L1583.57,2213.41z M1692.85,2282.05
		c0-33.67-36.188-38.21-36.188-62.45c0-8.42,3.5-11.618,9.399-11.618c5.891,0,9.391,3.198,9.391,11.618v4.4h17v-3.22
		c0-18.86-9.141-29.63-27.15-29.63c-18.02,0-27.22,10.77-27.22,29.63c0,33.659,36.22,38.21,36.22,62.45
		c0,8.42-3.529,11.448-9.42,11.448c-5.89,0-9.43-3.028-9.43-11.448V2275h-18v7.05c0,18.852,9.52,29.63,27.699,29.63
		S1692.85,2300.9,1692.85,2282.05 M1752.45,2310v-101h19v-17h-57v17h19v101H1752.45 M1834.45,2310v-38.72l23.46-79.28h-17.681
		l-14.14,53.7l-14.14-53.7H1792.6l23.851,79.28V2310H1834.45 M2440.45,2191.15c-18.181,0-28,10.77-28,29.629v61.271
		c0,18.851,9.819,29.63,28,29.63c18.18,0,28-10.779,28-29.63v-61.271C2468.45,2201.92,2458.63,2191.15,2440.45,2191.15
		 M2450.45,2283.23c0,8.42-4.11,11.608-10,11.608s-10-3.188-10-11.608V2219.6c0-8.42,4.11-11.618,10-11.618s10,3.198,10,11.618
		V2283.23z M2533.45,2310h19v-118h-19v51h-21v-51h-18v118h18v-50h21V2310 M2667.42,2192l-14.14,53.7l-14.14-53.7h-19.36l23.67,79.28
		V2310h18v-38.72L2685.1,2192H2667.42 M2758.45,2209v-17h-50v118h50v-17h-32v-34h26v-17h-26v-33H2758.45 M2801.9,2289h22.72l3.2,21
		h18.688l-18.858-118h-27.102l-18.85,118h17L2801.9,2289 M2813.18,2213.41l8.92,59.59h-17.85L2813.18,2213.41L2813.18,2213.41z
		 M2928.45,2310v-118h-19v51h-21v-51h-18v118h18v-50h21v50H2928.45 M1482.45,1365h27v141h26v-141h27v-24h-80V1365 M1635.25,1506
		h26.08l-26.312-165h-37.829l-26.311,165h23.73l4.459-30h31.721L1635.25,1506 M1602.359,1454l12.45-83.17l12.449,83.17H1602.359
		L1602.359,1454z M1719.189,1507.66c25.381,0,38.641-15.04,38.641-41.35c0-46.99-50.46-53.341-50.46-87.171
		c0-11.739,4.819-16.21,13.04-16.21c8.229,0,13.04,4.471,13.04,16.21v6.86h24v-5.21c0-26.32-12.79-41.35-37.931-41.35
		s-38,15.029-38,41.35c0,46.99,50.541,53.33,50.541,87.16c0,11.75-5.08,15.979-13.302,15.979c-8.229,0-13.31-4.229-13.31-15.979
		V1456h-25v10.311C1680.45,1492.62,1693.82,1507.66,1719.189,1507.66 M1831.45,1506v-141h27v-24h-80v24h27v141H1831.45
		 M1936.45,1506v-54.73L1969.52,1341h-24.67l-19.729,74.95l-19.74-74.95h-27.01l33.08,110.27V1506H1936.45 M2342.45,1857.42v-74.27
		c0-22.852-11.96-35.91-34-35.91c-22.03,0-34,13.06-34,35.91v74.27c0,22.85,11.97,35.9,34,35.9
		C2330.49,1893.32,2342.45,1880.27,2342.45,1857.42 M2296.45,1858.84v-77.12c0-10.199,4.86-14.079,12-14.079s12,3.88,12,14.079
		v77.12c0,10.2-4.86,14.08-12,14.08S2296.45,1869.04,2296.45,1858.84z M2398.45,1830h25v62h23v-143h-23v61h-25v-61h-23v143h23V1830
		 M2582.45,1892v-47.64l28.67-95.36h-21.42l-17.14,65.09L2555.42,1749h-23.46l28.49,95.36V1892H2582.45 M2702.45,1871h-39v-42h31
		v-20h-31v-40h39v-20h-61v143h61V1871 M2788.189,1892h22.641l-22.85-143h-32.852l-22.85,143h20.608l3.88-26h27.541L2788.189,1892
		 M2759.619,1846l10.819-72.22l10.812,72.22H2759.619L2759.619,1846z M2841.45,1749v143h23v-62h25v62h23v-143h-23v61h-25v-61
		H2841.45 M949.453,2311.68c18.181,0,28-10.779,28-29.63v-61.27c0-18.86-9.819-29.63-28-29.63c-18.18,0-28,10.77-28,29.63v61.27
		C921.453,2300.9,931.273,2311.68,949.453,2311.68 M939.453,2219.6c0-8.42,4.107-11.619,10-11.619c5.892,0,10,3.199,10,11.619
		v63.631c0,8.42-4.108,11.609-10,11.609c-5.893,0-10-3.189-10-11.609V2219.6L939.453,2219.6z M1061.45,2310v-118h-19v51h-21v-51h-18
		v118h18v-50h21v50H1061.45 M1170.45,2310v-38.72l23.64-79.28h-17.68l-14.141,53.7l-14.14-53.7h-19.35l23.67,79.28V2310H1170.45
		 M1217.45,2310h50v-17h-32v-34h26v-17h-26v-33h32v-17h-50V2310 M1310.89,2289h22.73l3.2,21h18.68l-18.85-118h-27.11l-18.85,118h17
		L1310.89,2289 M1322.17,2213.41l8.92,59.59h-17.84L1322.17,2213.41L1322.17,2213.41z M1418.45,2243h-21v-51h-18v118h18v-50h21v50
		h19v-118h-19V2243 M1953.41,2245.7l-14.141-53.7h-19.35l23.53,79.28V2310h18v-38.72l23.78-79.28h-17.681L1953.41,2245.7
		 M2063.45,2282.22V2192h-18v91.4c0,8.408-3.602,11.438-9.5,11.438c-5.891,0-9.5-3.03-9.5-11.438V2192h-18v90.22
		c0,18.852,9.318,29.63,27.5,29.63C2054.13,2311.85,2063.45,2301.07,2063.45,2282.22 M2128.71,2275.66l-13.63-83.66h-25.63v118h16
		v-83l13.84,83h17.5l12.66-84.17V2310h18v-118h-26.11L2128.71,2275.66 M2253.45,2225.83V2310h18v-118h-25.771l-12.619,83.66
		L2219.42,2192h-25.97v118h16v-83l14.18,83h17.51L2253.45,2225.83 M2336.45,2310v-38.72l23.63-79.28h-17.68l-14.141,53.7
		l-14.14-53.7h-19.36l23.69,79.28V2310H2336.45 M2367.45,1941h-97v28h33v172h31v-172h33V1941 M2502.85,2141l-32.02-200h-46.03
		l-32.02,200h28.87l5.43-36h38.6l5.432,36H2502.85 M2431.09,2077l15.15-101.2l15.148,101.2H2431.09L2431.09,2077z M2588.5,2143.189
		c30.88,0,46.97-18.301,46.97-50.319c0-57.17-61.42-64.891-61.42-106.062c0-14.3,5.69-19.729,15.7-19.729
		c10,0,15.7,5.43,15.7,19.729v8.19h30v-6.19c0-32.02-15.812-50.318-46.4-50.318s-46.36,18.3-46.36,50.318
		c0,57.182,61.44,64.9,61.44,106.07c0,14.29-6.33,19.439-16.34,19.439c-10,0-16.341-5.149-16.341-19.439V2081h-30v11.87
		C2541.449,2124.891,2557.63,2143.19,2588.5,2143.189 M2773.45,1941h-97v28h33v172h31v-172h33V1941 M2869.29,2032.2l-24.021-91.2
		h-32.879l40.06,133.58V2141h31v-66.42l39.87-133.58h-30.02L2869.29,2032.2 M2240.45,1233h38v203h38v-203h39v-34h-115V1233
		 M2407.66,1393h45.72l6.44,43h37.59l-37.93-237h-54.53l-37.94,237h34.21L2407.66,1393 M2430.35,1241.1l17.95,119.9H2412.4
		L2430.35,1241.1z M2525.45,1365v14.33c0,37.93,19.04,59.609,55.62,59.609s55.59-21.68,55.59-59.609
		c0-67.75-72.811-76.891-72.811-125.67c0-16.931,6.949-23.37,18.801-23.37c11.858,0,18.8,6.439,18.8,23.37v9.34h35v-6.97
		c0-37.931-18.681-59.61-54.92-59.61c-36.24,0-54.899,21.68-54.899,59.61c0,67.75,72.819,76.89,72.819,125.67
		c0,16.93-7.649,23.03-19.5,23.03c-11.86,0-19.5-6.101-19.5-23.03V1365H2525.45 M2666.45,1233h39v203h38v-203h39v-34h-116V1233
		 M2894.45,1436v-78.35l47.28-158.65h-35.57l-28.45,108.05L2849.26,1199h-38.949l47.14,158.65V1436H2894.45 M160.453,2630.04V2479.2
		c0-47.72-23.429-74.2-70.301-74.2H16.453v299h73.699C137.024,2704,160.453,2677.76,160.453,2630.04 M62.453,2661v-213H89.3
		c14.914,0,24.153,7.77,24.153,29.07v155.1c0,21.312-9.239,28.83-24.153,28.83H62.453L62.453,2661z M335.453,2448v-43h-128v299h128
		v-43h-81v-87h64v-43h-64v-83H335.453 M505.453,2661h-77v-256h-47v299h124V2661 M548.453,2405h47v299h-47V2405z M782.453,2632.17
		V2593h-44v42.15c0,21.31-9.586,28.979-24.5,28.979c-14.913,0-24.5-7.67-24.5-28.979V2474.09c0-21.311,9.587-29.398,24.5-29.398
		c14.914,0,24.5,8.09,24.5,29.398V2506h44v-28.93c0-47.721-23.981-74.99-70-74.99c-46.02,0-70,27.27-70,74.99v155.1
		c0,47.73,23.98,75,70,75C758.472,2707.17,782.453,2679.9,782.453,2632.17 M828.453,2405h47v299h-47V2405z M994.453,2402.08
		c-46.02,0-71,27.27-71,74.99v155.1c0,47.73,24.98,75,71,75c46.017,0,70.997-27.27,70.997-75v-155.1
		C1065.45,2429.35,1040.47,2402.08,994.453,2402.08 M1018.45,2635.15c0,21.31-9.08,29.408-23.997,29.408c-14.913,0-24-8.1-24-29.408
		V2474.09c0-21.31,9.087-29.398,24-29.398c14.917,0,23.997,8.09,23.997,29.398V2635.15z M1207.45,2635.58
		c0,21.311-9.08,28.979-24,28.979c-14.91,0-24-7.67-24-28.979V2405h-47v227.6c0,47.722,23.479,74.99,69.5,74.99
		c46.02,0,69.5-27.27,69.5-74.99V2405h-44V2635.58 M1344.48,2474.09c0-21.31,8.569-29.398,23.489-29.398
		c14.91,0,23.48,8.09,23.48,29.398V2486h44v-8.93c0-47.721-23.32-74.99-68.92-74.99c-45.591,0-68.971,27.27-68.971,74.99
		c0,85.22,91.641,96.729,91.641,158.08c0,21.31-9.46,28.979-24.38,28.979c-14.91,0-24.37-7.67-24.37-28.979V2614h-44v18.17
		c0,47.73,23.8,75,69.819,75c46.021,0,69.851-27.27,69.851-75C1436.12,2546.95,1344.479,2535.45,1344.48,2474.09 M51.39,2856.38
		L29.697,2774H0l35.453,120.99V2955h29v-60.01L100.197,2774H73.082L51.39,2856.38 M182.453,2913.59
		c0,12.91-5.462,17.562-14.5,17.562s-14.5-4.65-14.5-17.562V2774h-29v137.78c0,28.92,14.61,45.45,42.5,45.45
		c27.89,0,42.5-16.53,42.5-45.45V2774h-27V2913.59 M299.652,2902.35L278.735,2774h-39.282v181h25v-127.92L285.191,2955h26.857
		l19.405-129.73V2955h27v-181h-39.432L299.652,2902.35 M449.398,2902.35L428.48,2774h-39.027v181h24v-127.92L434.938,2955h26.855
		l19.66-129.73V2955h27v-181h-39.688L449.398,2902.35 M585.121,2856.38L563.428,2774H533.73l35.723,120.99V2955h29v-60.01
		L633.928,2774h-27.115L585.121,2856.38 M2320.53,2771.38l-21.69-82.38h-29.699l36.31,121.05V2870h28v-59.95l35.89-121.05h-27.12
		L2320.53,2771.38 M2462.45,2828.65c0,12.908-5.96,17.56-15,17.56c-9.03,0-15-4.649-15-17.56V2689h-28v137.84
		c0,28.92,14.61,45.45,42.5,45.45s42.5-16.53,42.5-45.45V2689h-27V2828.65 M2589.45,2817.35L2568.53,2689h-39.08v181h24v-127.86
		l21.54,127.86h26.859l19.601-129.67V2870h27v-181h-39.63L2589.45,2817.35 M2749.53,2817.35L2728.61,2689h-39.16v181h24v-127.86
		l21.611,127.86h26.858l19.53-129.67V2870h27v-181h-39.56L2749.53,2817.35 M2895.58,2771.38l-21.689-82.38h-29.701l36.261,121.05
		V2870h28v-59.95l35.93-121.05h-27.11L2895.58,2771.38 M700.453,2907.4l99.171,14.97l-99.171,16.159V2969h139v-19H740.98
		l98.473-16.46v-20.75L739.584,2898h99.869v-21h-139V2907.4 M700.453,2779.78v20.96l63.653,16.76l-63.653,16.76v22.94l93.006-28.2
		h45.994v-21h-45.994L700.453,2779.78 M2024.45,2974h85.319l-85.319-25.4V2974 M2168.311,2834h-143.859v28h145.75
		c13.51,0,18.38,6.04,18.38,15.5s-4.87,15.5-18.38,15.5h-145.75v30h143.86c30.27,0,47.569-15.311,47.569-44.5
		S2198.58,2834,2168.311,2834 M2213.45,2678h-189v41.55l134.34,20.28l-134.34,21.89V2803h189v-26h-133.8l133.8-22.04v-28.11
		L2077.76,2706h135.69V2678 M2213.45,2521h-189v41.82l134.34,20.27l-134.34,21.891V2646h189v-26h-133.8l133.8-21.77v-28.121
		L2077.76,2550h135.69V2521 M2213.45,2428h-62.71l-126.29-38.061v28.381l86.229,22.709l-86.229,22.7v31.091l126.29-37.82h62.71V2428
		 M1514.45,2376.02c-18.102,0-28,10.73-28,29.512v61.029c0,18.779,9.898,29.511,28,29.511c18.109,0,28-10.73,28-29.511v-61.029
		C1542.45,2386.75,1532.561,2376.02,1514.45,2376.02 M1523.45,2467.74c0,8.38-3.63,11.568-9.5,11.568s-9.5-3.188-9.5-11.568v-63.38
		c0-8.38,3.63-11.57,9.5-11.57s9.5,3.19,9.5,11.57V2467.74z M1619.45,2495v-118h-19v51h-21v-51h-19v118h19v-51h21v51H1619.45
		 M1695.45,2495h19v-39.17l23.16-78.83h-17.601l-14.08,53.49l-14.09-53.49h-19.279l22.89,78.83V2495 M1804.45,2394v-17h-50v118h50
		v-17h-32v-34h25v-17h-25v-33H1804.45 M1866.189,2377H1839.2l-18.78,118h16.939l3.181-22h22.64l3.182,22h18.608L1866.189,2377
		 M1842.89,2458l8.892-59.35l8.88,59.35H1842.89z M1901.45,2377v118h19v-51h21v51h19v-118h-19v51h-21v-51H1901.45 M1030.45,2836.34
		c0-41.62-22.36-65.398-62.497-65.398c-40.134,0-62.5,23.779-62.5,65.398v135.271c0,0.81,0.465,1.6,0.48,2.39h40.52v-140.26
		c0-18.58,8.494-25.642,21.5-25.642c13.007,0,21.5,7.062,21.5,25.642V2974h40.517c0.021-0.79,0.48-1.58,0.48-2.39V2836.34
		 M1159.45,2774v111h-47v-111h-41v200h41v-51h47v51h41v-200H1159.45 M1463.41,2774h-39.021l-31.22,118.54L1361.96,2774h-42.74
		l51.23,173.83V2974h41v-26.17L1463.41,2774 M1596.45,2921v-37h-56v-73h71v-37h-112v200h41v-53H1596.45 M1688.561,2774l-32.011,200
		H1780.4l-32.012-200H1688.561 M1696.74,2952l19.688-131.55l19.7,131.55H1696.74L1696.74,2952z M1914.45,2774v111h-46v-111h-41v200
		h41v-51h46v51h42v-200H1914.45 M1482.45,2559h27v141h26v-141h27v-24h-80V2559 M1597.189,2535l-26.311,165h23.73l4.459-30h31.721
		l4.46,30h26.08l-26.312-165H1597.189 M1602.359,2647l12.45-83.17l12.449,83.17H1602.359L1602.359,2647z M1707.42,2572.91
		c0-11.75,4.8-16.221,13.021-16.221s13.011,4.471,13.011,16.221v7.09h24v-5.45c0-26.31-12.79-41.35-37.932-41.35
		c-25.14,0-38,15.04-38,41.35c0,46.99,50.541,53.33,50.541,87.16c0,11.75-5.079,15.979-13.301,15.979
		c-8.229,0-13.31-4.229-13.31-15.979V2650h-25v10.07c0,26.31,13.37,41.35,38.739,41.35c25.381,0,38.641-15.04,38.641-41.35
		C1757.83,2613.08,1707.42,2606.74,1707.42,2572.91 M1778.45,2559h27v141h26v-141h27v-24h-80V2559 M1925.12,2609.95l-19.74-74.95
		h-27.01l33.08,110.03V2700h25v-54.97L1969.52,2535h-24.67L1925.12,2609.95 M2308.51,2941c-21.08,0-33.01,11.96-34,33h22.41
		c0.42-9.09,4.8-12.59,11.59-12.59c6.78,0,11.16,3.5,11.58,12.59h22.41C2341.51,2952.96,2329.58,2941,2308.51,2941 M2423.45,2943h23
		v31h-23V2943z M2375.45,2943h23v31h-23V2943z M2555.42,2943h-23.46l9.32,31h22.399L2555.42,2943 M2589.7,2943l-8.261,31h20.371
		l9.31-31H2589.7 M2702.45,2963v-20h-61v31h22v-11H2702.45 M2755.13,2943l-5.01,31h19.409l0.909-6.07l0.911,6.07H2793l-5.02-31
		H2755.13 M2889.45,2943h23v31h-23V2943z M2841.45,2943h23v31h-23V2943z M2278.45,2630h38v-203h39v-34h-115v34h38V2630
		 M2404.95,2393l-37.94,237h34.21l6.44-43h45.72l6.44,43h37.59l-37.93-237H2404.95 M2412.4,2555l17.948-119.9l17.95,119.9H2412.4z
		 M2581.07,2632.7c36.58,0,55.59-21.681,55.59-59.61c0-67.75-72.811-76.89-72.811-125.67c0-16.93,6.949-23.37,18.801-23.37
		c11.858,0,18.8,6.44,18.8,23.37v9.58h35v-7.21c0-37.93-18.681-59.61-54.92-59.61c-36.24,0-54.899,21.682-54.899,59.61
		c0,67.75,72.819,76.89,72.819,125.67c0,16.93-7.649,23.03-19.5,23.03c-11.86,0-19.5-6.102-19.5-23.03V2559h-35v14.09
		C2525.45,2611.02,2544.49,2632.7,2581.07,2632.7 M2705.45,2630h38v-203h39v-34h-116v34h39V2630 M2857.45,2630h37v-78.59
		l47.28-158.41h-35.57l-28.45,108.05L2849.26,2393h-38.949l47.14,158.41V2630"/>
</g>
</svg>
